<mxfile host="app.diagrams.net" modified="2023-09-24T20:17:12.319Z" agent="Mozilla/5.0 (Windows NT 10.0; Win64; x64) AppleWebKit/537.36 (KHTML, like Gecko) Chrome/117.0.0.0 Safari/537.36" etag="dZoEd0hJzJvSGLM4RuiU" version="21.8.0" type="device" pages="2">
  <diagram name="Página-1" id="Q4Uh6-ncVY6zBxwnab1Q">
    <mxGraphModel dx="2145" dy="1828" grid="1" gridSize="10" guides="1" tooltips="1" connect="1" arrows="1" fold="1" page="1" pageScale="1" pageWidth="827" pageHeight="1169" math="0" shadow="0">
      <root>
        <mxCell id="0" />
        <mxCell id="1" parent="0" />
        <mxCell id="OuHQAWwQwAp6CYQ7iZEw-1" value="7. Se desea modelar la información necesaria para el tratamiento de pacientes con&lt;br&gt;COVID-19.&lt;br&gt;&lt;br&gt;Es necesario representar tanto a los pacientes que han contraído el virus como a los&lt;br&gt;médicos que atienden los casos. &lt;br&gt;&lt;br&gt;Tanto para los médicos como para los pacientes es&lt;br&gt;necesario almacenar: D.N.I, número de pasaporte (si poseen), dirección detallada, nombre,&lt;br&gt;apellido y fecha de nacimiento.&lt;br&gt;&lt;br&gt;Para los pacientes se debe almacenar además, una descripción de enfermedades&lt;br&gt;preexistentes e información referente al episodio de contagio y además cantidad de dosis&lt;br&gt;de la vacuna anti covid. &lt;br&gt;&lt;br&gt;Tenga en cuenta que hay pacientes que pueden contagiarse más&lt;br&gt;de una vez, por lo tanto tendrán más de un episodio.&lt;br&gt;&lt;br&gt;De cada episodio, se registra: número único de episodio, fecha de detección, síntomas y médicos que llevaron a cabo la atención.&lt;br&gt;&lt;br&gt;Los síntomas pueden variar entre los diferentes episodios sabiendo que cada síntoma&lt;br&gt;tiene un código único y una descripción asociada.&lt;br&gt;&lt;br&gt;Para los médicos es necesario almacenar además, el código de matrícula, especialidades&lt;br&gt;y sala en la que atiende. Un médico puede rotar de salas y es necesario modelar el&lt;br&gt;historial de rotaciones de cada médico. De la sala se conoce, número de sala (único), piso&lt;br&gt;y capacidad.&lt;br&gt;&lt;br&gt;&amp;nbsp;De las especialidades se almacena un nombre único y descripción. Es&lt;br&gt;necesario que se almacene la nota promedio obtenida por el médico en cada especialidad.&lt;br&gt;Tenga en cuenta que un médico también puede contagiarse COVID-19 y su modelo debe&lt;br&gt;permitir representar esto.&lt;br&gt;&lt;br&gt;Nota: Podría pedirse médico que tiene máximo de atenciones por covid, médico que no&lt;br&gt;atendió más de 10 pacientes, paciente con más contagios, entre otros." style="text;whiteSpace=wrap;html=1;" vertex="1" parent="1">
          <mxGeometry x="400" y="-410" width="520" height="530" as="geometry" />
        </mxCell>
        <mxCell id="OuHQAWwQwAp6CYQ7iZEw-2" value="Pacientes" style="rounded=0;whiteSpace=wrap;html=1;" vertex="1" parent="1">
          <mxGeometry x="-120" y="160" width="120" height="70" as="geometry" />
        </mxCell>
        <mxCell id="OuHQAWwQwAp6CYQ7iZEw-6" value="" style="endArrow=none;html=1;rounded=0;entryX=0.34;entryY=-0.038;entryDx=0;entryDy=0;exitX=0.5;exitY=1;exitDx=0;exitDy=0;entryPerimeter=0;" edge="1" source="OuHQAWwQwAp6CYQ7iZEw-67" target="OuHQAWwQwAp6CYQ7iZEw-2" parent="1">
          <mxGeometry width="50" height="50" relative="1" as="geometry">
            <mxPoint x="-90" y="119.99999999999989" as="sourcePoint" />
            <mxPoint x="-65" y="56" as="targetPoint" />
          </mxGeometry>
        </mxCell>
        <mxCell id="OuHQAWwQwAp6CYQ7iZEw-9" value="" style="endArrow=none;html=1;rounded=0;entryX=0;entryY=0;entryDx=0;entryDy=0;exitX=0;exitY=0;exitDx=0;exitDy=0;" edge="1" source="OuHQAWwQwAp6CYQ7iZEw-10" target="OuHQAWwQwAp6CYQ7iZEw-2" parent="1">
          <mxGeometry width="50" height="50" relative="1" as="geometry">
            <mxPoint x="-170" y="120" as="sourcePoint" />
            <mxPoint x="-55" y="140" as="targetPoint" />
          </mxGeometry>
        </mxCell>
        <mxCell id="OuHQAWwQwAp6CYQ7iZEw-10" value="" style="ellipse;whiteSpace=wrap;html=1;aspect=fixed;rotation=-180;" vertex="1" parent="1">
          <mxGeometry x="-185" y="100" width="20" height="20" as="geometry" />
        </mxCell>
        <mxCell id="OuHQAWwQwAp6CYQ7iZEw-11" value="Cantidad de dosis" style="text;html=1;align=center;verticalAlign=middle;resizable=0;points=[];autosize=1;strokeColor=none;fillColor=none;" vertex="1" parent="1">
          <mxGeometry x="-280" y="70" width="120" height="30" as="geometry" />
        </mxCell>
        <mxCell id="OuHQAWwQwAp6CYQ7iZEw-14" value="Medicos" style="rounded=0;whiteSpace=wrap;html=1;" vertex="1" parent="1">
          <mxGeometry x="-90" y="520" width="120" height="70" as="geometry" />
        </mxCell>
        <mxCell id="OuHQAWwQwAp6CYQ7iZEw-15" value="" style="endArrow=none;html=1;rounded=0;entryX=0.5;entryY=0;entryDx=0;entryDy=0;exitX=1;exitY=1;exitDx=0;exitDy=0;" edge="1" source="OuHQAWwQwAp6CYQ7iZEw-16" target="OuHQAWwQwAp6CYQ7iZEw-14" parent="1">
          <mxGeometry width="50" height="50" relative="1" as="geometry">
            <mxPoint x="-30" y="470" as="sourcePoint" />
            <mxPoint x="-130" y="564" as="targetPoint" />
          </mxGeometry>
        </mxCell>
        <mxCell id="OuHQAWwQwAp6CYQ7iZEw-16" value="" style="ellipse;whiteSpace=wrap;html=1;aspect=fixed;rotation=45;fillColor=#0A0A0A;" vertex="1" parent="1">
          <mxGeometry x="-40" y="473" width="20" height="20" as="geometry" />
        </mxCell>
        <mxCell id="OuHQAWwQwAp6CYQ7iZEw-17" value="Apellido" style="text;html=1;align=center;verticalAlign=middle;resizable=0;points=[];autosize=1;strokeColor=none;fillColor=none;" vertex="1" parent="1">
          <mxGeometry x="-610" y="234" width="70" height="30" as="geometry" />
        </mxCell>
        <mxCell id="OuHQAWwQwAp6CYQ7iZEw-18" value="Código matricula" style="text;html=1;align=center;verticalAlign=middle;resizable=0;points=[];autosize=1;strokeColor=none;fillColor=none;" vertex="1" parent="1">
          <mxGeometry x="-85" y="443" width="110" height="30" as="geometry" />
        </mxCell>
        <mxCell id="OuHQAWwQwAp6CYQ7iZEw-22" value="" style="endArrow=none;html=1;rounded=0;entryX=0.25;entryY=1;entryDx=0;entryDy=0;exitX=0.5;exitY=0;exitDx=0;exitDy=0;" edge="1" source="OuHQAWwQwAp6CYQ7iZEw-162" target="OuHQAWwQwAp6CYQ7iZEw-32" parent="1">
          <mxGeometry width="50" height="50" relative="1" as="geometry">
            <mxPoint x="-560" y="448" as="sourcePoint" />
            <mxPoint x="-510" y="410" as="targetPoint" />
          </mxGeometry>
        </mxCell>
        <mxCell id="OuHQAWwQwAp6CYQ7iZEw-32" value="Personas" style="rounded=0;whiteSpace=wrap;html=1;" vertex="1" parent="1">
          <mxGeometry x="-540.0000000000005" y="330" width="120" height="70" as="geometry" />
        </mxCell>
        <mxCell id="OuHQAWwQwAp6CYQ7iZEw-33" value="" style="endArrow=none;html=1;rounded=0;entryX=0.011;entryY=0.122;entryDx=0;entryDy=0;exitX=0.875;exitY=0.283;exitDx=0;exitDy=0;exitPerimeter=0;entryPerimeter=0;" edge="1" source="OuHQAWwQwAp6CYQ7iZEw-34" target="OuHQAWwQwAp6CYQ7iZEw-32" parent="1">
          <mxGeometry width="50" height="50" relative="1" as="geometry">
            <mxPoint x="-665" y="378" as="sourcePoint" />
            <mxPoint x="-555" y="352" as="targetPoint" />
          </mxGeometry>
        </mxCell>
        <mxCell id="OuHQAWwQwAp6CYQ7iZEw-34" value="" style="ellipse;whiteSpace=wrap;html=1;aspect=fixed;rotation=30;fillColor=#0A0A0A;" vertex="1" parent="1">
          <mxGeometry x="-610" y="304" width="20" height="20" as="geometry" />
        </mxCell>
        <mxCell id="OuHQAWwQwAp6CYQ7iZEw-35" value="" style="endArrow=none;html=1;rounded=0;entryX=0;entryY=0.25;entryDx=0;entryDy=0;exitX=1;exitY=0.5;exitDx=0;exitDy=0;" edge="1" source="OuHQAWwQwAp6CYQ7iZEw-36" target="OuHQAWwQwAp6CYQ7iZEw-32" parent="1">
          <mxGeometry width="50" height="50" relative="1" as="geometry">
            <mxPoint x="-645" y="398" as="sourcePoint" />
            <mxPoint x="-555" y="369" as="targetPoint" />
          </mxGeometry>
        </mxCell>
        <mxCell id="OuHQAWwQwAp6CYQ7iZEw-36" value="" style="ellipse;whiteSpace=wrap;html=1;aspect=fixed;fillColor=#FFFFFF;" vertex="1" parent="1">
          <mxGeometry x="-625" y="340" width="20" height="20" as="geometry" />
        </mxCell>
        <mxCell id="OuHQAWwQwAp6CYQ7iZEw-37" value="DNI" style="text;html=1;align=center;verticalAlign=middle;resizable=0;points=[];autosize=1;strokeColor=none;fillColor=none;" vertex="1" parent="1">
          <mxGeometry x="-645" y="284" width="40" height="30" as="geometry" />
        </mxCell>
        <mxCell id="OuHQAWwQwAp6CYQ7iZEw-38" value="Nro pasaporte 0,1" style="text;html=1;align=center;verticalAlign=middle;resizable=0;points=[];autosize=1;strokeColor=none;fillColor=none;" vertex="1" parent="1">
          <mxGeometry x="-739" y="335" width="120" height="30" as="geometry" />
        </mxCell>
        <mxCell id="OuHQAWwQwAp6CYQ7iZEw-39" value="" style="endArrow=none;html=1;rounded=0;entryX=0;entryY=0;entryDx=0;entryDy=0;exitX=1;exitY=1;exitDx=0;exitDy=0;" edge="1" source="OuHQAWwQwAp6CYQ7iZEw-40" target="OuHQAWwQwAp6CYQ7iZEw-32" parent="1">
          <mxGeometry width="50" height="50" relative="1" as="geometry">
            <mxPoint x="-575" y="294" as="sourcePoint" />
            <mxPoint x="-555" y="314" as="targetPoint" />
          </mxGeometry>
        </mxCell>
        <mxCell id="OuHQAWwQwAp6CYQ7iZEw-40" value="" style="ellipse;whiteSpace=wrap;html=1;aspect=fixed;rotation=30;" vertex="1" parent="1">
          <mxGeometry x="-570" y="264" width="20" height="20" as="geometry" />
        </mxCell>
        <mxCell id="OuHQAWwQwAp6CYQ7iZEw-41" value="" style="endArrow=none;html=1;rounded=0;entryX=0.25;entryY=0;entryDx=0;entryDy=0;exitX=1;exitY=1;exitDx=0;exitDy=0;" edge="1" source="OuHQAWwQwAp6CYQ7iZEw-42" target="OuHQAWwQwAp6CYQ7iZEw-32" parent="1">
          <mxGeometry width="50" height="50" relative="1" as="geometry">
            <mxPoint x="-445" y="224" as="sourcePoint" />
            <mxPoint x="-525" y="314" as="targetPoint" />
          </mxGeometry>
        </mxCell>
        <mxCell id="OuHQAWwQwAp6CYQ7iZEw-42" value="" style="ellipse;whiteSpace=wrap;html=1;aspect=fixed;rotation=60;" vertex="1" parent="1">
          <mxGeometry x="-510" y="264" width="20" height="20" as="geometry" />
        </mxCell>
        <mxCell id="OuHQAWwQwAp6CYQ7iZEw-43" value="Nombre" style="text;html=1;align=center;verticalAlign=middle;resizable=0;points=[];autosize=1;strokeColor=none;fillColor=none;" vertex="1" parent="1">
          <mxGeometry x="-540" y="244" width="70" height="30" as="geometry" />
        </mxCell>
        <mxCell id="OuHQAWwQwAp6CYQ7iZEw-50" value="" style="endArrow=none;html=1;rounded=0;exitX=0.014;exitY=0.569;exitDx=0;exitDy=0;exitPerimeter=0;entryX=1;entryY=0.5;entryDx=0;entryDy=0;" edge="1" source="OuHQAWwQwAp6CYQ7iZEw-14" parent="1" target="OuHQAWwQwAp6CYQ7iZEw-158">
          <mxGeometry width="50" height="50" relative="1" as="geometry">
            <mxPoint x="-210" y="520" as="sourcePoint" />
            <mxPoint x="-190" y="500" as="targetPoint" />
          </mxGeometry>
        </mxCell>
        <mxCell id="OuHQAWwQwAp6CYQ7iZEw-51" value="" style="endArrow=none;html=1;rounded=0;entryX=0;entryY=0.5;entryDx=0;entryDy=0;exitX=1;exitY=0.5;exitDx=0;exitDy=0;" edge="1" target="OuHQAWwQwAp6CYQ7iZEw-2" parent="1" source="OuHQAWwQwAp6CYQ7iZEw-157">
          <mxGeometry width="50" height="50" relative="1" as="geometry">
            <mxPoint x="-260" y="280" as="sourcePoint" />
            <mxPoint x="-160" y="200" as="targetPoint" />
          </mxGeometry>
        </mxCell>
        <mxCell id="OuHQAWwQwAp6CYQ7iZEw-66" value="" style="endArrow=none;html=1;rounded=0;entryX=0;entryY=0.75;entryDx=0;entryDy=0;exitX=0.5;exitY=0;exitDx=0;exitDy=0;" edge="1" parent="1" source="OuHQAWwQwAp6CYQ7iZEw-163" target="OuHQAWwQwAp6CYQ7iZEw-32">
          <mxGeometry width="50" height="50" relative="1" as="geometry">
            <mxPoint x="-621.02518824512" y="393.9815548440979" as="sourcePoint" />
            <mxPoint x="-560" y="370" as="targetPoint" />
          </mxGeometry>
        </mxCell>
        <mxCell id="OuHQAWwQwAp6CYQ7iZEw-67" value="tiene" style="rhombus;whiteSpace=wrap;html=1;" vertex="1" parent="1">
          <mxGeometry x="-110" y="30" width="60" height="60" as="geometry" />
        </mxCell>
        <mxCell id="OuHQAWwQwAp6CYQ7iZEw-68" value="" style="endArrow=none;html=1;rounded=0;exitX=0.5;exitY=0;exitDx=0;exitDy=0;" edge="1" parent="1" source="OuHQAWwQwAp6CYQ7iZEw-67" target="OuHQAWwQwAp6CYQ7iZEw-69">
          <mxGeometry width="50" height="50" relative="1" as="geometry">
            <mxPoint x="-50" y="-120" as="sourcePoint" />
            <mxPoint x="-80" y="-110" as="targetPoint" />
          </mxGeometry>
        </mxCell>
        <mxCell id="OuHQAWwQwAp6CYQ7iZEw-69" value="Enfermedades" style="rounded=0;whiteSpace=wrap;html=1;" vertex="1" parent="1">
          <mxGeometry x="-140.00000000000045" y="-130" width="120" height="70" as="geometry" />
        </mxCell>
        <mxCell id="OuHQAWwQwAp6CYQ7iZEw-70" value="" style="endArrow=none;html=1;rounded=0;entryX=0.25;entryY=0;entryDx=0;entryDy=0;exitX=1;exitY=1;exitDx=0;exitDy=0;" edge="1" source="OuHQAWwQwAp6CYQ7iZEw-71" target="OuHQAWwQwAp6CYQ7iZEw-69" parent="1">
          <mxGeometry width="50" height="50" relative="1" as="geometry">
            <mxPoint x="-40.000000000000455" y="-240" as="sourcePoint" />
            <mxPoint x="-90.00000000000045" y="-180" as="targetPoint" />
          </mxGeometry>
        </mxCell>
        <mxCell id="OuHQAWwQwAp6CYQ7iZEw-71" value="" style="ellipse;whiteSpace=wrap;html=1;aspect=fixed;rotation=15;" vertex="1" parent="1">
          <mxGeometry x="-150.00000000000045" y="-200" width="20" height="20" as="geometry" />
        </mxCell>
        <mxCell id="OuHQAWwQwAp6CYQ7iZEw-72" value="" style="endArrow=none;html=1;rounded=0;entryX=0;entryY=0.25;entryDx=0;entryDy=0;exitX=0.875;exitY=0.283;exitDx=0;exitDy=0;exitPerimeter=0;" edge="1" source="OuHQAWwQwAp6CYQ7iZEw-73" target="OuHQAWwQwAp6CYQ7iZEw-69" parent="1">
          <mxGeometry width="50" height="50" relative="1" as="geometry">
            <mxPoint x="-260.00000000000045" y="-106" as="sourcePoint" />
            <mxPoint x="-190.00000000000045" y="-106" as="targetPoint" />
          </mxGeometry>
        </mxCell>
        <mxCell id="OuHQAWwQwAp6CYQ7iZEw-73" value="" style="ellipse;whiteSpace=wrap;html=1;aspect=fixed;rotation=30;fillColor=#0A0A0A;" vertex="1" parent="1">
          <mxGeometry x="-210.00000000000045" y="-150" width="20" height="20" as="geometry" />
        </mxCell>
        <mxCell id="OuHQAWwQwAp6CYQ7iZEw-74" value="Desc" style="text;html=1;align=center;verticalAlign=middle;resizable=0;points=[];autosize=1;strokeColor=none;fillColor=none;" vertex="1" parent="1">
          <mxGeometry x="-165.00000000000045" y="-230" width="50" height="30" as="geometry" />
        </mxCell>
        <mxCell id="OuHQAWwQwAp6CYQ7iZEw-76" value="Nombre" style="text;html=1;align=center;verticalAlign=middle;resizable=0;points=[];autosize=1;strokeColor=none;fillColor=none;" vertex="1" parent="1">
          <mxGeometry x="-275" y="-172" width="70" height="30" as="geometry" />
        </mxCell>
        <mxCell id="OuHQAWwQwAp6CYQ7iZEw-77" value="" style="endArrow=none;html=1;rounded=0;exitX=1;exitY=0;exitDx=0;exitDy=0;entryX=0.5;entryY=1;entryDx=0;entryDy=0;" edge="1" parent="1" source="OuHQAWwQwAp6CYQ7iZEw-2" target="OuHQAWwQwAp6CYQ7iZEw-79">
          <mxGeometry width="50" height="50" relative="1" as="geometry">
            <mxPoint y="150" as="sourcePoint" />
            <mxPoint x="80" y="40" as="targetPoint" />
          </mxGeometry>
        </mxCell>
        <mxCell id="OuHQAWwQwAp6CYQ7iZEw-79" value="tiene 2" style="rhombus;whiteSpace=wrap;html=1;" vertex="1" parent="1">
          <mxGeometry x="60" y="30" width="60" height="60" as="geometry" />
        </mxCell>
        <mxCell id="OuHQAWwQwAp6CYQ7iZEw-80" value="" style="endArrow=none;html=1;rounded=0;exitX=0.5;exitY=0;exitDx=0;exitDy=0;entryX=0;entryY=1;entryDx=0;entryDy=0;" edge="1" parent="1" source="OuHQAWwQwAp6CYQ7iZEw-79" target="OuHQAWwQwAp6CYQ7iZEw-87">
          <mxGeometry width="50" height="50" relative="1" as="geometry">
            <mxPoint x="110" y="10" as="sourcePoint" />
            <mxPoint x="160" y="-40" as="targetPoint" />
          </mxGeometry>
        </mxCell>
        <mxCell id="OuHQAWwQwAp6CYQ7iZEw-87" value="Episodios" style="rounded=0;whiteSpace=wrap;html=1;" vertex="1" parent="1">
          <mxGeometry x="164.99999999999955" y="-110" width="120" height="70" as="geometry" />
        </mxCell>
        <mxCell id="OuHQAWwQwAp6CYQ7iZEw-88" value="" style="endArrow=none;html=1;rounded=0;entryX=0.25;entryY=0;entryDx=0;entryDy=0;exitX=1;exitY=1;exitDx=0;exitDy=0;" edge="1" source="OuHQAWwQwAp6CYQ7iZEw-89" target="OuHQAWwQwAp6CYQ7iZEw-87" parent="1">
          <mxGeometry width="50" height="50" relative="1" as="geometry">
            <mxPoint x="279.99999999999955" y="-230" as="sourcePoint" />
            <mxPoint x="229.99999999999955" y="-170" as="targetPoint" />
          </mxGeometry>
        </mxCell>
        <mxCell id="OuHQAWwQwAp6CYQ7iZEw-89" value="" style="ellipse;whiteSpace=wrap;html=1;aspect=fixed;rotation=15;" vertex="1" parent="1">
          <mxGeometry x="169.99999999999955" y="-190" width="20" height="20" as="geometry" />
        </mxCell>
        <mxCell id="OuHQAWwQwAp6CYQ7iZEw-90" value="" style="endArrow=none;html=1;rounded=0;entryX=0;entryY=0.25;entryDx=0;entryDy=0;exitX=0.875;exitY=0.283;exitDx=0;exitDy=0;exitPerimeter=0;" edge="1" source="OuHQAWwQwAp6CYQ7iZEw-91" target="OuHQAWwQwAp6CYQ7iZEw-87" parent="1">
          <mxGeometry width="50" height="50" relative="1" as="geometry">
            <mxPoint x="59.999999999999545" y="-96" as="sourcePoint" />
            <mxPoint x="129.99999999999955" y="-96" as="targetPoint" />
          </mxGeometry>
        </mxCell>
        <mxCell id="OuHQAWwQwAp6CYQ7iZEw-91" value="" style="ellipse;whiteSpace=wrap;html=1;aspect=fixed;rotation=60;fillColor=#0A0A0A;" vertex="1" parent="1">
          <mxGeometry x="99.99999999999955" y="-155" width="20" height="20" as="geometry" />
        </mxCell>
        <mxCell id="OuHQAWwQwAp6CYQ7iZEw-92" value="Fecha de deteccion" style="text;html=1;align=center;verticalAlign=middle;resizable=0;points=[];autosize=1;strokeColor=none;fillColor=none;" vertex="1" parent="1">
          <mxGeometry x="99.99999999999955" y="-220" width="130" height="30" as="geometry" />
        </mxCell>
        <mxCell id="OuHQAWwQwAp6CYQ7iZEw-94" value="Nro" style="text;html=1;align=center;verticalAlign=middle;resizable=0;points=[];autosize=1;strokeColor=none;fillColor=none;" vertex="1" parent="1">
          <mxGeometry x="70" y="-170" width="40" height="30" as="geometry" />
        </mxCell>
        <mxCell id="OuHQAWwQwAp6CYQ7iZEw-95" value="" style="endArrow=none;html=1;rounded=0;" edge="1" source="OuHQAWwQwAp6CYQ7iZEw-100" parent="1">
          <mxGeometry width="50" height="50" relative="1" as="geometry">
            <mxPoint x="280" y="-270" as="sourcePoint" />
            <mxPoint x="280" y="-110" as="targetPoint" />
          </mxGeometry>
        </mxCell>
        <mxCell id="OuHQAWwQwAp6CYQ7iZEw-98" value="" style="endArrow=none;html=1;rounded=0;" edge="1" parent="1">
          <mxGeometry width="50" height="50" relative="1" as="geometry">
            <mxPoint y="160" as="sourcePoint" />
            <mxPoint x="150" y="-130" as="targetPoint" />
            <Array as="points">
              <mxPoint x="30" y="30" />
            </Array>
          </mxGeometry>
        </mxCell>
        <mxCell id="OuHQAWwQwAp6CYQ7iZEw-99" value="" style="ellipse;whiteSpace=wrap;html=1;aspect=fixed;rotation=60;fillColor=#0A0A0A;" vertex="1" parent="1">
          <mxGeometry x="139.99999999999955" y="-142" width="20" height="20" as="geometry" />
        </mxCell>
        <mxCell id="OuHQAWwQwAp6CYQ7iZEw-100" value="tiene 3" style="rhombus;whiteSpace=wrap;html=1;" vertex="1" parent="1">
          <mxGeometry x="250" y="-250" width="60" height="60" as="geometry" />
        </mxCell>
        <mxCell id="OuHQAWwQwAp6CYQ7iZEw-102" value="" style="endArrow=none;html=1;rounded=0;exitX=0.5;exitY=0;exitDx=0;exitDy=0;entryX=0.5;entryY=1;entryDx=0;entryDy=0;" edge="1" parent="1" source="OuHQAWwQwAp6CYQ7iZEw-100" target="OuHQAWwQwAp6CYQ7iZEw-103">
          <mxGeometry width="50" height="50" relative="1" as="geometry">
            <mxPoint x="280" y="-280" as="sourcePoint" />
            <mxPoint x="280" y="-310" as="targetPoint" />
          </mxGeometry>
        </mxCell>
        <mxCell id="OuHQAWwQwAp6CYQ7iZEw-103" value="Productos" style="rounded=0;whiteSpace=wrap;html=1;" vertex="1" parent="1">
          <mxGeometry x="219.99999999999955" y="-400" width="120" height="70" as="geometry" />
        </mxCell>
        <mxCell id="OuHQAWwQwAp6CYQ7iZEw-104" value="" style="endArrow=none;html=1;rounded=0;entryX=0.25;entryY=0;entryDx=0;entryDy=0;exitX=1;exitY=1;exitDx=0;exitDy=0;" edge="1" source="OuHQAWwQwAp6CYQ7iZEw-105" target="OuHQAWwQwAp6CYQ7iZEw-103" parent="1">
          <mxGeometry width="50" height="50" relative="1" as="geometry">
            <mxPoint x="329.99999999999955" y="-490" as="sourcePoint" />
            <mxPoint x="279.99999999999955" y="-430" as="targetPoint" />
          </mxGeometry>
        </mxCell>
        <mxCell id="OuHQAWwQwAp6CYQ7iZEw-105" value="" style="ellipse;whiteSpace=wrap;html=1;aspect=fixed;rotation=15;" vertex="1" parent="1">
          <mxGeometry x="219.99999999999955" y="-450" width="20" height="20" as="geometry" />
        </mxCell>
        <mxCell id="OuHQAWwQwAp6CYQ7iZEw-106" value="" style="endArrow=none;html=1;rounded=0;entryX=0;entryY=0.25;entryDx=0;entryDy=0;exitX=0.875;exitY=0.283;exitDx=0;exitDy=0;exitPerimeter=0;" edge="1" source="OuHQAWwQwAp6CYQ7iZEw-107" target="OuHQAWwQwAp6CYQ7iZEw-103" parent="1">
          <mxGeometry width="50" height="50" relative="1" as="geometry">
            <mxPoint x="109.99999999999955" y="-356" as="sourcePoint" />
            <mxPoint x="179.99999999999955" y="-356" as="targetPoint" />
          </mxGeometry>
        </mxCell>
        <mxCell id="OuHQAWwQwAp6CYQ7iZEw-107" value="" style="ellipse;whiteSpace=wrap;html=1;aspect=fixed;rotation=30;fillColor=#0A0A0A;" vertex="1" parent="1">
          <mxGeometry x="159.99999999999955" y="-400" width="20" height="20" as="geometry" />
        </mxCell>
        <mxCell id="OuHQAWwQwAp6CYQ7iZEw-108" value="Desc" style="text;html=1;align=center;verticalAlign=middle;resizable=0;points=[];autosize=1;strokeColor=none;fillColor=none;" vertex="1" parent="1">
          <mxGeometry x="204.99999999999955" y="-480" width="50" height="30" as="geometry" />
        </mxCell>
        <mxCell id="OuHQAWwQwAp6CYQ7iZEw-109" value="Codgio" style="text;html=1;align=center;verticalAlign=middle;resizable=0;points=[];autosize=1;strokeColor=none;fillColor=none;" vertex="1" parent="1">
          <mxGeometry x="100" y="-412" width="60" height="30" as="geometry" />
        </mxCell>
        <mxCell id="OuHQAWwQwAp6CYQ7iZEw-110" value="" style="endArrow=none;html=1;rounded=0;exitX=1;exitY=0;exitDx=0;exitDy=0;edgeStyle=orthogonalEdgeStyle;curved=1;entryX=0;entryY=0.5;entryDx=0;entryDy=0;" edge="1" parent="1" source="OuHQAWwQwAp6CYQ7iZEw-14" target="OuHQAWwQwAp6CYQ7iZEw-112">
          <mxGeometry width="50" height="50" relative="1" as="geometry">
            <mxPoint x="40" y="520" as="sourcePoint" />
            <mxPoint x="160" y="240" as="targetPoint" />
            <Array as="points">
              <mxPoint x="160" y="520" />
              <mxPoint x="160" y="214" />
            </Array>
          </mxGeometry>
        </mxCell>
        <mxCell id="OuHQAWwQwAp6CYQ7iZEw-112" value="Atiende" style="rhombus;whiteSpace=wrap;html=1;" vertex="1" parent="1">
          <mxGeometry x="195" y="184" width="60" height="60" as="geometry" />
        </mxCell>
        <mxCell id="OuHQAWwQwAp6CYQ7iZEw-113" value="" style="endArrow=none;html=1;rounded=0;exitX=0.5;exitY=0;exitDx=0;exitDy=0;entryX=0.5;entryY=1;entryDx=0;entryDy=0;" edge="1" parent="1" source="OuHQAWwQwAp6CYQ7iZEw-112" target="OuHQAWwQwAp6CYQ7iZEw-87">
          <mxGeometry width="50" height="50" relative="1" as="geometry">
            <mxPoint x="250" y="110" as="sourcePoint" />
            <mxPoint x="300" y="60" as="targetPoint" />
          </mxGeometry>
        </mxCell>
        <mxCell id="OuHQAWwQwAp6CYQ7iZEw-114" value="1,N" style="text;html=1;align=center;verticalAlign=middle;resizable=0;points=[];autosize=1;strokeColor=none;fillColor=none;" vertex="1" parent="1">
          <mxGeometry x="30" y="478" width="40" height="30" as="geometry" />
        </mxCell>
        <mxCell id="OuHQAWwQwAp6CYQ7iZEw-116" value="1,N" style="text;html=1;align=center;verticalAlign=middle;resizable=0;points=[];autosize=1;strokeColor=none;fillColor=none;" vertex="1" parent="1">
          <mxGeometry x="240" y="-42" width="40" height="30" as="geometry" />
        </mxCell>
        <mxCell id="OuHQAWwQwAp6CYQ7iZEw-117" value="" style="endArrow=none;html=1;rounded=0;entryX=0;entryY=1;entryDx=0;entryDy=0;" edge="1" source="OuHQAWwQwAp6CYQ7iZEw-128" parent="1" target="OuHQAWwQwAp6CYQ7iZEw-14">
          <mxGeometry width="50" height="50" relative="1" as="geometry">
            <mxPoint x="-90" y="810" as="sourcePoint" />
            <mxPoint x="-85" y="600" as="targetPoint" />
          </mxGeometry>
        </mxCell>
        <mxCell id="OuHQAWwQwAp6CYQ7iZEw-128" value="Atiende" style="rhombus;whiteSpace=wrap;html=1;" vertex="1" parent="1">
          <mxGeometry x="-120" y="700" width="60" height="60" as="geometry" />
        </mxCell>
        <mxCell id="OuHQAWwQwAp6CYQ7iZEw-130" value="" style="endArrow=none;html=1;rounded=0;entryX=0.5;entryY=1;entryDx=0;entryDy=0;" edge="1" parent="1" source="OuHQAWwQwAp6CYQ7iZEw-131" target="OuHQAWwQwAp6CYQ7iZEw-128">
          <mxGeometry width="50" height="50" relative="1" as="geometry">
            <mxPoint x="-90" y="860" as="sourcePoint" />
            <mxPoint x="-110" y="800" as="targetPoint" />
          </mxGeometry>
        </mxCell>
        <mxCell id="OuHQAWwQwAp6CYQ7iZEw-131" value="Sala" style="rounded=0;whiteSpace=wrap;html=1;" vertex="1" parent="1">
          <mxGeometry x="-150.00000000000045" y="900" width="120" height="70" as="geometry" />
        </mxCell>
        <mxCell id="OuHQAWwQwAp6CYQ7iZEw-132" value="" style="endArrow=none;html=1;rounded=0;entryX=0;entryY=0.5;entryDx=0;entryDy=0;exitX=1;exitY=0;exitDx=0;exitDy=0;" edge="1" source="OuHQAWwQwAp6CYQ7iZEw-133" target="OuHQAWwQwAp6CYQ7iZEw-131" parent="1">
          <mxGeometry width="50" height="50" relative="1" as="geometry">
            <mxPoint x="-115.00000000000045" y="930" as="sourcePoint" />
            <mxPoint x="-195.00000000000045" y="1020" as="targetPoint" />
          </mxGeometry>
        </mxCell>
        <mxCell id="OuHQAWwQwAp6CYQ7iZEw-133" value="" style="ellipse;whiteSpace=wrap;html=1;aspect=fixed;rotation=15;" vertex="1" parent="1">
          <mxGeometry x="-205.00000000000045" y="940" width="20" height="20" as="geometry" />
        </mxCell>
        <mxCell id="OuHQAWwQwAp6CYQ7iZEw-134" value="" style="endArrow=none;html=1;rounded=0;entryX=0;entryY=0.25;entryDx=0;entryDy=0;exitX=0.875;exitY=0.283;exitDx=0;exitDy=0;exitPerimeter=0;" edge="1" source="OuHQAWwQwAp6CYQ7iZEw-135" target="OuHQAWwQwAp6CYQ7iZEw-131" parent="1">
          <mxGeometry width="50" height="50" relative="1" as="geometry">
            <mxPoint x="-260.00000000000045" y="944" as="sourcePoint" />
            <mxPoint x="-190.00000000000045" y="944" as="targetPoint" />
          </mxGeometry>
        </mxCell>
        <mxCell id="OuHQAWwQwAp6CYQ7iZEw-135" value="" style="ellipse;whiteSpace=wrap;html=1;aspect=fixed;rotation=30;fillColor=#0A0A0A;" vertex="1" parent="1">
          <mxGeometry x="-210.00000000000045" y="900" width="20" height="20" as="geometry" />
        </mxCell>
        <mxCell id="OuHQAWwQwAp6CYQ7iZEw-136" value="Piso" style="text;html=1;align=center;verticalAlign=middle;resizable=0;points=[];autosize=1;strokeColor=none;fillColor=none;" vertex="1" parent="1">
          <mxGeometry x="-255.00000000000045" y="935" width="50" height="30" as="geometry" />
        </mxCell>
        <mxCell id="OuHQAWwQwAp6CYQ7iZEw-137" value="Nro" style="text;html=1;align=center;verticalAlign=middle;resizable=0;points=[];autosize=1;strokeColor=none;fillColor=none;" vertex="1" parent="1">
          <mxGeometry x="-250" y="890" width="40" height="30" as="geometry" />
        </mxCell>
        <mxCell id="OuHQAWwQwAp6CYQ7iZEw-138" value="" style="endArrow=none;html=1;rounded=0;exitX=1;exitY=0;exitDx=0;exitDy=0;entryX=0;entryY=0.75;entryDx=0;entryDy=0;" edge="1" source="OuHQAWwQwAp6CYQ7iZEw-139" parent="1" target="OuHQAWwQwAp6CYQ7iZEw-131">
          <mxGeometry width="50" height="50" relative="1" as="geometry">
            <mxPoint x="-179" y="1052" as="sourcePoint" />
            <mxPoint x="-120" y="1008" as="targetPoint" />
          </mxGeometry>
        </mxCell>
        <mxCell id="OuHQAWwQwAp6CYQ7iZEw-139" value="" style="ellipse;whiteSpace=wrap;html=1;aspect=fixed;" vertex="1" parent="1">
          <mxGeometry x="-205" y="980" width="20" height="20" as="geometry" />
        </mxCell>
        <mxCell id="OuHQAWwQwAp6CYQ7iZEw-140" value="Capacidad" style="text;html=1;align=center;verticalAlign=middle;resizable=0;points=[];autosize=1;strokeColor=none;fillColor=none;" vertex="1" parent="1">
          <mxGeometry x="-285" y="980" width="80" height="30" as="geometry" />
        </mxCell>
        <mxCell id="OuHQAWwQwAp6CYQ7iZEw-142" value="Tiene" style="rhombus;whiteSpace=wrap;html=1;" vertex="1" parent="1">
          <mxGeometry x="120" y="700" width="60" height="60" as="geometry" />
        </mxCell>
        <mxCell id="OuHQAWwQwAp6CYQ7iZEw-143" value="" style="endArrow=none;html=1;rounded=0;entryX=0.5;entryY=1;entryDx=0;entryDy=0;" edge="1" parent="1" source="OuHQAWwQwAp6CYQ7iZEw-144" target="OuHQAWwQwAp6CYQ7iZEw-142">
          <mxGeometry width="50" height="50" relative="1" as="geometry">
            <mxPoint x="150" y="860" as="sourcePoint" />
            <mxPoint x="130" y="800" as="targetPoint" />
          </mxGeometry>
        </mxCell>
        <mxCell id="OuHQAWwQwAp6CYQ7iZEw-144" value="Especialidades" style="rounded=0;whiteSpace=wrap;html=1;" vertex="1" parent="1">
          <mxGeometry x="89.99999999999955" y="900" width="120" height="70" as="geometry" />
        </mxCell>
        <mxCell id="OuHQAWwQwAp6CYQ7iZEw-145" value="" style="endArrow=none;html=1;rounded=0;entryX=1;entryY=0.25;entryDx=0;entryDy=0;exitX=0;exitY=0.5;exitDx=0;exitDy=0;" edge="1" parent="1" source="OuHQAWwQwAp6CYQ7iZEw-146" target="OuHQAWwQwAp6CYQ7iZEw-144">
          <mxGeometry width="50" height="50" relative="1" as="geometry">
            <mxPoint x="469.99999999999955" y="915" as="sourcePoint" />
            <mxPoint x="434.99999999999955" y="920" as="targetPoint" />
          </mxGeometry>
        </mxCell>
        <mxCell id="OuHQAWwQwAp6CYQ7iZEw-146" value="" style="ellipse;whiteSpace=wrap;html=1;aspect=fixed;rotation=15;" vertex="1" parent="1">
          <mxGeometry x="244.99999999999955" y="915" width="20" height="20" as="geometry" />
        </mxCell>
        <mxCell id="OuHQAWwQwAp6CYQ7iZEw-147" value="" style="endArrow=none;html=1;rounded=0;entryX=1;entryY=0;entryDx=0;entryDy=0;exitX=0;exitY=1;exitDx=0;exitDy=0;" edge="1" parent="1" source="OuHQAWwQwAp6CYQ7iZEw-148" target="OuHQAWwQwAp6CYQ7iZEw-144">
          <mxGeometry width="50" height="50" relative="1" as="geometry">
            <mxPoint x="324.99999999999955" y="929" as="sourcePoint" />
            <mxPoint x="434.99999999999955" y="902.5" as="targetPoint" />
          </mxGeometry>
        </mxCell>
        <mxCell id="OuHQAWwQwAp6CYQ7iZEw-148" value="" style="ellipse;whiteSpace=wrap;html=1;aspect=fixed;rotation=30;fillColor=#0A0A0A;" vertex="1" parent="1">
          <mxGeometry x="239.99999999999955" y="875" width="20" height="20" as="geometry" />
        </mxCell>
        <mxCell id="OuHQAWwQwAp6CYQ7iZEw-149" value="Desc" style="text;html=1;align=center;verticalAlign=middle;resizable=0;points=[];autosize=1;strokeColor=none;fillColor=none;" vertex="1" parent="1">
          <mxGeometry x="264.99999999999955" y="905" width="50" height="30" as="geometry" />
        </mxCell>
        <mxCell id="OuHQAWwQwAp6CYQ7iZEw-150" value="Nombre" style="text;html=1;align=center;verticalAlign=middle;resizable=0;points=[];autosize=1;strokeColor=none;fillColor=none;" vertex="1" parent="1">
          <mxGeometry x="255" y="870" width="70" height="30" as="geometry" />
        </mxCell>
        <mxCell id="OuHQAWwQwAp6CYQ7iZEw-151" value="" style="endArrow=none;html=1;rounded=0;exitX=0;exitY=0.5;exitDx=0;exitDy=0;entryX=1;entryY=0.5;entryDx=0;entryDy=0;" edge="1" parent="1" source="OuHQAWwQwAp6CYQ7iZEw-152" target="OuHQAWwQwAp6CYQ7iZEw-142">
          <mxGeometry width="50" height="50" relative="1" as="geometry">
            <mxPoint x="406" y="832" as="sourcePoint" />
            <mxPoint x="209.99999999999955" y="730" as="targetPoint" />
          </mxGeometry>
        </mxCell>
        <mxCell id="OuHQAWwQwAp6CYQ7iZEw-152" value="" style="ellipse;whiteSpace=wrap;html=1;aspect=fixed;" vertex="1" parent="1">
          <mxGeometry x="230" y="720" width="20" height="20" as="geometry" />
        </mxCell>
        <mxCell id="OuHQAWwQwAp6CYQ7iZEw-154" value="" style="endArrow=none;html=1;rounded=0;entryX=1;entryY=1;entryDx=0;entryDy=0;exitX=0.5;exitY=0;exitDx=0;exitDy=0;" edge="1" parent="1" source="OuHQAWwQwAp6CYQ7iZEw-142" target="OuHQAWwQwAp6CYQ7iZEw-14">
          <mxGeometry width="50" height="50" relative="1" as="geometry">
            <mxPoint x="70" y="660" as="sourcePoint" />
            <mxPoint x="40" y="620" as="targetPoint" />
          </mxGeometry>
        </mxCell>
        <mxCell id="OuHQAWwQwAp6CYQ7iZEw-155" value="Nota promedio" style="text;html=1;align=center;verticalAlign=middle;resizable=0;points=[];autosize=1;strokeColor=none;fillColor=none;" vertex="1" parent="1">
          <mxGeometry x="255" y="715" width="100" height="30" as="geometry" />
        </mxCell>
        <mxCell id="OuHQAWwQwAp6CYQ7iZEw-157" value="Es 2" style="rhombus;whiteSpace=wrap;html=1;" vertex="1" parent="1">
          <mxGeometry x="-325" y="244" width="60" height="60" as="geometry" />
        </mxCell>
        <mxCell id="OuHQAWwQwAp6CYQ7iZEw-158" value="Es" style="rhombus;whiteSpace=wrap;html=1;" vertex="1" parent="1">
          <mxGeometry x="-255" y="466" width="60" height="60" as="geometry" />
        </mxCell>
        <mxCell id="OuHQAWwQwAp6CYQ7iZEw-159" value="" style="endArrow=none;html=1;rounded=0;exitX=1;exitY=0.5;exitDx=0;exitDy=0;entryX=0;entryY=0.5;entryDx=0;entryDy=0;" edge="1" parent="1" source="OuHQAWwQwAp6CYQ7iZEw-32" target="OuHQAWwQwAp6CYQ7iZEw-158">
          <mxGeometry width="50" height="50" relative="1" as="geometry">
            <mxPoint x="-290" y="460" as="sourcePoint" />
            <mxPoint x="-240" y="410" as="targetPoint" />
          </mxGeometry>
        </mxCell>
        <mxCell id="OuHQAWwQwAp6CYQ7iZEw-160" value="" style="endArrow=none;html=1;rounded=0;entryX=0;entryY=0.5;entryDx=0;entryDy=0;exitX=1;exitY=0.5;exitDx=0;exitDy=0;" edge="1" parent="1" source="OuHQAWwQwAp6CYQ7iZEw-32" target="OuHQAWwQwAp6CYQ7iZEw-157">
          <mxGeometry width="50" height="50" relative="1" as="geometry">
            <mxPoint x="-390" y="340" as="sourcePoint" />
            <mxPoint x="-330" y="270" as="targetPoint" />
          </mxGeometry>
        </mxCell>
        <mxCell id="OuHQAWwQwAp6CYQ7iZEw-162" value="" style="ellipse;whiteSpace=wrap;html=1;aspect=fixed;rotation=60;" vertex="1" parent="1">
          <mxGeometry x="-590" y="423" width="20" height="20" as="geometry" />
        </mxCell>
        <mxCell id="OuHQAWwQwAp6CYQ7iZEw-163" value="" style="ellipse;whiteSpace=wrap;html=1;aspect=fixed;rotation=60;" vertex="1" parent="1">
          <mxGeometry x="-619" y="390" width="20" height="20" as="geometry" />
        </mxCell>
        <mxCell id="OuHQAWwQwAp6CYQ7iZEw-164" value="Direccion" style="text;html=1;align=center;verticalAlign=middle;resizable=0;points=[];autosize=1;strokeColor=none;fillColor=none;" vertex="1" parent="1">
          <mxGeometry x="-689" y="385" width="70" height="30" as="geometry" />
        </mxCell>
        <mxCell id="OuHQAWwQwAp6CYQ7iZEw-165" value="Fecha de nacimiento" style="text;html=1;align=center;verticalAlign=middle;resizable=0;points=[];autosize=1;strokeColor=none;fillColor=none;" vertex="1" parent="1">
          <mxGeometry x="-720" y="418" width="130" height="30" as="geometry" />
        </mxCell>
        <mxCell id="OuHQAWwQwAp6CYQ7iZEw-167" value="" style="endArrow=none;html=1;rounded=0;exitX=1;exitY=0.5;exitDx=0;exitDy=0;entryX=0;entryY=0.5;entryDx=0;entryDy=0;" edge="1" source="OuHQAWwQwAp6CYQ7iZEw-168" parent="1" target="OuHQAWwQwAp6CYQ7iZEw-128">
          <mxGeometry width="50" height="50" relative="1" as="geometry">
            <mxPoint x="-206" y="792" as="sourcePoint" />
            <mxPoint x="-147" y="748" as="targetPoint" />
          </mxGeometry>
        </mxCell>
        <mxCell id="OuHQAWwQwAp6CYQ7iZEw-168" value="" style="ellipse;whiteSpace=wrap;html=1;aspect=fixed;" vertex="1" parent="1">
          <mxGeometry x="-180" y="720" width="20" height="20" as="geometry" />
        </mxCell>
        <mxCell id="OuHQAWwQwAp6CYQ7iZEw-169" value="Fecha hasta 0,1" style="text;html=1;align=center;verticalAlign=middle;resizable=0;points=[];autosize=1;strokeColor=none;fillColor=none;" vertex="1" parent="1">
          <mxGeometry x="-290" y="715" width="110" height="30" as="geometry" />
        </mxCell>
        <mxCell id="OuHQAWwQwAp6CYQ7iZEw-170" value="" style="endArrow=none;html=1;rounded=0;exitX=0;exitY=0.5;exitDx=0;exitDy=0;entryX=1;entryY=0.5;entryDx=0;entryDy=0;" edge="1" source="OuHQAWwQwAp6CYQ7iZEw-171" parent="1" target="OuHQAWwQwAp6CYQ7iZEw-128">
          <mxGeometry width="50" height="50" relative="1" as="geometry">
            <mxPoint x="36" y="777" as="sourcePoint" />
            <mxPoint x="95" y="733" as="targetPoint" />
          </mxGeometry>
        </mxCell>
        <mxCell id="OuHQAWwQwAp6CYQ7iZEw-171" value="" style="ellipse;whiteSpace=wrap;html=1;aspect=fixed;" vertex="1" parent="1">
          <mxGeometry x="-20" y="720" width="20" height="20" as="geometry" />
        </mxCell>
        <mxCell id="OuHQAWwQwAp6CYQ7iZEw-173" value="Fecha desde" style="text;html=1;align=center;verticalAlign=middle;resizable=0;points=[];autosize=1;strokeColor=none;fillColor=none;" vertex="1" parent="1">
          <mxGeometry y="715" width="90" height="30" as="geometry" />
        </mxCell>
      </root>
    </mxGraphModel>
  </diagram>
  <diagram id="vFXn0qMBz6WolJQfrS-x" name="Página-2">
    <mxGraphModel dx="2071" dy="622" grid="1" gridSize="10" guides="1" tooltips="1" connect="1" arrows="1" fold="1" page="1" pageScale="1" pageWidth="827" pageHeight="1169" math="0" shadow="0">
      <root>
        <mxCell id="0" />
        <mxCell id="1" parent="0" />
        <mxCell id="X5VpgKdFM8C6l-6GHkS9-1" value="8. Se desea modelar la información necesaria para una empresa dedicada a la&lt;br&gt;realización de eventos gastronómicos al aire libre. &lt;br&gt;&lt;br&gt;Para cada evento se alquilan cierta cantidad de lugares donde el inquilino podrá vender productos comestibles o bien utilizarlo para difundir su actividad, además se brindan servicios tales como electricidad, agua corriente y demás, si el inquilino lo requiere. &lt;br&gt;&lt;br&gt;De los lugares se registra: número único, descripción, metros cuadrados (m2), ubicación, distancia a la puerta de acceso al predio y precio por día. &lt;br&gt;&lt;br&gt;De los servicios en cambio se registra: nombre único, descripción y precio del servicio.&lt;br&gt;&lt;br&gt;De cada evento se registra: nombre del evento, fecha y hora de inicio, dirección del&lt;br&gt;evento, duración del evento y el staff de personas encargadas de la organización y&lt;br&gt;difusión del evento. &lt;br&gt;&lt;br&gt;De cada integrante del staff se debe registrar: DNI, nombre completo,&lt;br&gt;dirección detallada, fecha de nacimiento, correo electrónico, teléfonos de contacto y el rol&lt;br&gt;que cumple dentro del evento.&lt;br&gt;&lt;br&gt;De los inquilinos se registran: DNI, nombre completo, dirección detallada, teléfonos de&lt;br&gt;contacto, razón social (si el inquilino representa a una empresa), y tipo de gastronomía (si&lt;br&gt;vende comestibles).&lt;br&gt;&lt;br&gt;Además, se debe registrar información de los alquileres: fecha, hora,&lt;br&gt;quien es el inquilino, el evento al que corresponde el alquiler, el o los lugares que alquila&lt;br&gt;y, en caso de que alquile servicios, los servicios alquilados.&lt;br&gt;&lt;br&gt;Nota: El nombre del evento no se podrá repetir en una misma fecha. Tenga en cuenta&lt;br&gt;que debe poder determinar el costo de todos los alquileres (valor al que se alquila o&lt;br&gt;alquiló cada lugar o servicio), actuales e histórico." style="text;whiteSpace=wrap;html=1;" vertex="1" parent="1">
          <mxGeometry x="149" y="40" width="530" height="470" as="geometry" />
        </mxCell>
        <mxCell id="X5VpgKdFM8C6l-6GHkS9-2" value="Staffs" style="rounded=0;whiteSpace=wrap;html=1;" vertex="1" parent="1">
          <mxGeometry x="241" y="685" width="120" height="70" as="geometry" />
        </mxCell>
        <mxCell id="X5VpgKdFM8C6l-6GHkS9-3" value="" style="endArrow=none;html=1;rounded=0;entryX=0;entryY=0;entryDx=0;entryDy=0;exitX=1;exitY=1;exitDx=0;exitDy=0;" edge="1" source="X5VpgKdFM8C6l-6GHkS9-4" target="X5VpgKdFM8C6l-6GHkS9-2" parent="1">
          <mxGeometry width="50" height="50" relative="1" as="geometry">
            <mxPoint x="350" y="595" as="sourcePoint" />
            <mxPoint x="300" y="655" as="targetPoint" />
          </mxGeometry>
        </mxCell>
        <mxCell id="X5VpgKdFM8C6l-6GHkS9-4" value="" style="ellipse;whiteSpace=wrap;html=1;aspect=fixed;rotation=15;fillColor=#FFFFFF;" vertex="1" parent="1">
          <mxGeometry x="200" y="635" width="20" height="20" as="geometry" />
        </mxCell>
        <mxCell id="X5VpgKdFM8C6l-6GHkS9-5" value="Correo" style="text;html=1;align=center;verticalAlign=middle;resizable=0;points=[];autosize=1;strokeColor=none;fillColor=none;" vertex="1" parent="1">
          <mxGeometry x="140" y="615" width="60" height="30" as="geometry" />
        </mxCell>
        <mxCell id="X5VpgKdFM8C6l-6GHkS9-6" value="" style="endArrow=none;html=1;rounded=0;entryX=0.25;entryY=0;entryDx=0;entryDy=0;" edge="1" source="X5VpgKdFM8C6l-6GHkS9-12" target="X5VpgKdFM8C6l-6GHkS9-2" parent="1">
          <mxGeometry width="50" height="50" relative="1" as="geometry">
            <mxPoint x="255" y="635" as="sourcePoint" />
            <mxPoint x="295" y="581" as="targetPoint" />
          </mxGeometry>
        </mxCell>
        <mxCell id="X5VpgKdFM8C6l-6GHkS9-12" value="" style="ellipse;whiteSpace=wrap;html=1;aspect=fixed;rotation=45;" vertex="1" parent="1">
          <mxGeometry x="245" y="615" width="20" height="20" as="geometry" />
        </mxCell>
        <mxCell id="X5VpgKdFM8C6l-6GHkS9-13" value="Fecha de nacimiento" style="text;html=1;align=center;verticalAlign=middle;resizable=0;points=[];autosize=1;strokeColor=none;fillColor=none;" vertex="1" parent="1">
          <mxGeometry x="185" y="585" width="130" height="30" as="geometry" />
        </mxCell>
        <mxCell id="X5VpgKdFM8C6l-6GHkS9-14" value="Inquilinos" style="rounded=0;whiteSpace=wrap;html=1;" vertex="1" parent="1">
          <mxGeometry x="270" y="1045" width="120" height="70" as="geometry" />
        </mxCell>
        <mxCell id="X5VpgKdFM8C6l-6GHkS9-15" value="" style="endArrow=none;html=1;rounded=0;entryX=0.5;entryY=0;entryDx=0;entryDy=0;exitX=1;exitY=1;exitDx=0;exitDy=0;" edge="1" source="X5VpgKdFM8C6l-6GHkS9-16" target="X5VpgKdFM8C6l-6GHkS9-14" parent="1">
          <mxGeometry width="50" height="50" relative="1" as="geometry">
            <mxPoint x="330" y="995" as="sourcePoint" />
            <mxPoint x="230" y="1089" as="targetPoint" />
          </mxGeometry>
        </mxCell>
        <mxCell id="X5VpgKdFM8C6l-6GHkS9-16" value="" style="ellipse;whiteSpace=wrap;html=1;aspect=fixed;rotation=45;fillColor=#0A0A0A;" vertex="1" parent="1">
          <mxGeometry x="320" y="998" width="20" height="20" as="geometry" />
        </mxCell>
        <mxCell id="X5VpgKdFM8C6l-6GHkS9-18" value="Razón social" style="text;html=1;align=center;verticalAlign=middle;resizable=0;points=[];autosize=1;strokeColor=none;fillColor=none;" vertex="1" parent="1">
          <mxGeometry x="285" y="968" width="90" height="30" as="geometry" />
        </mxCell>
        <mxCell id="X5VpgKdFM8C6l-6GHkS9-19" value="" style="endArrow=none;html=1;rounded=0;entryX=0;entryY=0.75;entryDx=0;entryDy=0;exitX=1;exitY=0;exitDx=0;exitDy=0;" edge="1" source="X5VpgKdFM8C6l-6GHkS9-20" target="X5VpgKdFM8C6l-6GHkS9-32" parent="1">
          <mxGeometry width="50" height="50" relative="1" as="geometry">
            <mxPoint x="-150" y="992" as="sourcePoint" />
            <mxPoint x="-70" y="934.5" as="targetPoint" />
          </mxGeometry>
        </mxCell>
        <mxCell id="X5VpgKdFM8C6l-6GHkS9-20" value="" style="ellipse;whiteSpace=wrap;html=1;aspect=fixed;rotation=15;" vertex="1" parent="1">
          <mxGeometry x="-250" y="957" width="20" height="20" as="geometry" />
        </mxCell>
        <mxCell id="X5VpgKdFM8C6l-6GHkS9-21" value="Telefono 1,N" style="text;html=1;align=center;verticalAlign=middle;resizable=0;points=[];autosize=1;strokeColor=none;fillColor=none;" vertex="1" parent="1">
          <mxGeometry x="-335" y="952" width="90" height="30" as="geometry" />
        </mxCell>
        <mxCell id="X5VpgKdFM8C6l-6GHkS9-22" value="" style="endArrow=none;html=1;rounded=0;exitX=0.7;exitY=0;exitDx=0;exitDy=0;entryX=0.25;entryY=1;entryDx=0;entryDy=0;exitPerimeter=0;" edge="1" source="X5VpgKdFM8C6l-6GHkS9-23" target="X5VpgKdFM8C6l-6GHkS9-32" parent="1">
          <mxGeometry width="50" height="50" relative="1" as="geometry">
            <mxPoint x="-162.41180954897482" y="965.3407417371093" as="sourcePoint" />
            <mxPoint x="-150" y="935" as="targetPoint" />
          </mxGeometry>
        </mxCell>
        <mxCell id="X5VpgKdFM8C6l-6GHkS9-23" value="Direccion" style="ellipse;whiteSpace=wrap;html=1;" vertex="1" parent="1">
          <mxGeometry x="-200" y="973" width="60" height="30" as="geometry" />
        </mxCell>
        <mxCell id="X5VpgKdFM8C6l-6GHkS9-24" value="" style="endArrow=none;html=1;rounded=0;exitX=1;exitY=0.5;exitDx=0;exitDy=0;entryX=0;entryY=1;entryDx=0;entryDy=0;" edge="1" source="X5VpgKdFM8C6l-6GHkS9-27" target="X5VpgKdFM8C6l-6GHkS9-23" parent="1">
          <mxGeometry width="50" height="50" relative="1" as="geometry">
            <mxPoint x="-211.3397459621558" y="1008.0000000000002" as="sourcePoint" />
            <mxPoint x="-200" y="995" as="targetPoint" />
          </mxGeometry>
        </mxCell>
        <mxCell id="X5VpgKdFM8C6l-6GHkS9-25" value="" style="ellipse;whiteSpace=wrap;html=1;aspect=fixed;rotation=15;" vertex="1" parent="1">
          <mxGeometry x="-210" y="1035" width="20" height="20" as="geometry" />
        </mxCell>
        <mxCell id="X5VpgKdFM8C6l-6GHkS9-26" value="" style="endArrow=none;html=1;rounded=0;entryX=0.333;entryY=1.067;entryDx=0;entryDy=0;exitX=0.5;exitY=0;exitDx=0;exitDy=0;entryPerimeter=0;" edge="1" source="X5VpgKdFM8C6l-6GHkS9-25" target="X5VpgKdFM8C6l-6GHkS9-23" parent="1">
          <mxGeometry width="50" height="50" relative="1" as="geometry">
            <mxPoint x="-185.00000000000023" y="1024.3397459621558" as="sourcePoint" />
            <mxPoint x="-155" y="1005" as="targetPoint" />
          </mxGeometry>
        </mxCell>
        <mxCell id="X5VpgKdFM8C6l-6GHkS9-27" value="" style="ellipse;whiteSpace=wrap;html=1;aspect=fixed;rotation=-15;" vertex="1" parent="1">
          <mxGeometry x="-230" y="1003" width="20" height="20" as="geometry" />
        </mxCell>
        <mxCell id="X5VpgKdFM8C6l-6GHkS9-28" value="" style="endArrow=none;html=1;rounded=0;entryX=0.5;entryY=1;entryDx=0;entryDy=0;exitX=1;exitY=0;exitDx=0;exitDy=0;" edge="1" source="X5VpgKdFM8C6l-6GHkS9-29" target="X5VpgKdFM8C6l-6GHkS9-23" parent="1">
          <mxGeometry width="50" height="50" relative="1" as="geometry">
            <mxPoint x="145" y="1226" as="sourcePoint" />
            <mxPoint x="225" y="1169" as="targetPoint" />
          </mxGeometry>
        </mxCell>
        <mxCell id="X5VpgKdFM8C6l-6GHkS9-29" value="" style="ellipse;whiteSpace=wrap;html=1;aspect=fixed;rotation=-150;direction=south;" vertex="1" parent="1">
          <mxGeometry x="-164.37" y="1024.09" width="19.08" height="19.08" as="geometry" />
        </mxCell>
        <mxCell id="X5VpgKdFM8C6l-6GHkS9-30" value="Calle 1,1" style="text;html=1;align=center;verticalAlign=middle;resizable=0;points=[];autosize=1;strokeColor=none;fillColor=none;" vertex="1" parent="1">
          <mxGeometry x="-240" y="1055" width="70" height="30" as="geometry" />
        </mxCell>
        <mxCell id="X5VpgKdFM8C6l-6GHkS9-31" value="Nro 1,1" style="text;html=1;align=center;verticalAlign=middle;resizable=0;points=[];autosize=1;strokeColor=none;fillColor=none;" vertex="1" parent="1">
          <mxGeometry x="-290" y="998" width="60" height="30" as="geometry" />
        </mxCell>
        <mxCell id="X5VpgKdFM8C6l-6GHkS9-32" value="Personas" style="rounded=0;whiteSpace=wrap;html=1;" vertex="1" parent="1">
          <mxGeometry x="-180.00000000000045" y="855" width="120" height="70" as="geometry" />
        </mxCell>
        <mxCell id="X5VpgKdFM8C6l-6GHkS9-33" value="" style="endArrow=none;html=1;rounded=0;entryX=0.011;entryY=0.122;entryDx=0;entryDy=0;exitX=0.875;exitY=0.283;exitDx=0;exitDy=0;exitPerimeter=0;entryPerimeter=0;" edge="1" source="X5VpgKdFM8C6l-6GHkS9-34" target="X5VpgKdFM8C6l-6GHkS9-32" parent="1">
          <mxGeometry width="50" height="50" relative="1" as="geometry">
            <mxPoint x="-305" y="903" as="sourcePoint" />
            <mxPoint x="-195" y="877" as="targetPoint" />
          </mxGeometry>
        </mxCell>
        <mxCell id="X5VpgKdFM8C6l-6GHkS9-34" value="" style="ellipse;whiteSpace=wrap;html=1;aspect=fixed;rotation=30;fillColor=#0A0A0A;" vertex="1" parent="1">
          <mxGeometry x="-250" y="829" width="20" height="20" as="geometry" />
        </mxCell>
        <mxCell id="X5VpgKdFM8C6l-6GHkS9-37" value="DNI" style="text;html=1;align=center;verticalAlign=middle;resizable=0;points=[];autosize=1;strokeColor=none;fillColor=none;" vertex="1" parent="1">
          <mxGeometry x="-285" y="809" width="40" height="30" as="geometry" />
        </mxCell>
        <mxCell id="X5VpgKdFM8C6l-6GHkS9-44" value="Piso 0,1" style="text;html=1;align=center;verticalAlign=middle;resizable=0;points=[];autosize=1;strokeColor=none;fillColor=none;" vertex="1" parent="1">
          <mxGeometry x="-175" y="1053" width="70" height="30" as="geometry" />
        </mxCell>
        <mxCell id="X5VpgKdFM8C6l-6GHkS9-45" value="" style="endArrow=none;html=1;rounded=0;entryX=1;entryY=1;entryDx=0;entryDy=0;exitX=0.5;exitY=0;exitDx=0;exitDy=0;" edge="1" source="X5VpgKdFM8C6l-6GHkS9-46" target="X5VpgKdFM8C6l-6GHkS9-23" parent="1">
          <mxGeometry width="50" height="50" relative="1" as="geometry">
            <mxPoint x="-85" y="1003" as="sourcePoint" />
            <mxPoint x="-85" y="966" as="targetPoint" />
          </mxGeometry>
        </mxCell>
        <mxCell id="X5VpgKdFM8C6l-6GHkS9-46" value="" style="ellipse;whiteSpace=wrap;html=1;aspect=fixed;rotation=-45;" vertex="1" parent="1">
          <mxGeometry x="-130" y="1011" width="20" height="20" as="geometry" />
        </mxCell>
        <mxCell id="X5VpgKdFM8C6l-6GHkS9-47" value="Dpto 0,1" style="text;html=1;align=center;verticalAlign=middle;resizable=0;points=[];autosize=1;strokeColor=none;fillColor=none;" vertex="1" parent="1">
          <mxGeometry x="-120" y="1015" width="70" height="30" as="geometry" />
        </mxCell>
        <mxCell id="X5VpgKdFM8C6l-6GHkS9-48" value="" style="endArrow=none;html=1;rounded=0;" edge="1" parent="1">
          <mxGeometry width="50" height="50" relative="1" as="geometry">
            <mxPoint x="30" y="945" as="sourcePoint" />
            <mxPoint x="30" y="835" as="targetPoint" />
          </mxGeometry>
        </mxCell>
        <mxCell id="X5VpgKdFM8C6l-6GHkS9-49" value="" style="endArrow=classic;html=1;rounded=0;entryX=1;entryY=0.5;entryDx=0;entryDy=0;" edge="1" target="X5VpgKdFM8C6l-6GHkS9-32" parent="1">
          <mxGeometry width="50" height="50" relative="1" as="geometry">
            <mxPoint x="30" y="890" as="sourcePoint" />
            <mxPoint x="30" y="875" as="targetPoint" />
          </mxGeometry>
        </mxCell>
        <mxCell id="X5VpgKdFM8C6l-6GHkS9-50" value="" style="endArrow=none;html=1;rounded=0;exitX=0.014;exitY=0.569;exitDx=0;exitDy=0;exitPerimeter=0;" edge="1" source="X5VpgKdFM8C6l-6GHkS9-14" parent="1">
          <mxGeometry width="50" height="50" relative="1" as="geometry">
            <mxPoint x="150" y="1045" as="sourcePoint" />
            <mxPoint x="30" y="945" as="targetPoint" />
          </mxGeometry>
        </mxCell>
        <mxCell id="X5VpgKdFM8C6l-6GHkS9-51" value="" style="endArrow=none;html=1;rounded=0;entryX=0;entryY=0.5;entryDx=0;entryDy=0;" edge="1" target="X5VpgKdFM8C6l-6GHkS9-2" parent="1">
          <mxGeometry width="50" height="50" relative="1" as="geometry">
            <mxPoint x="30" y="835" as="sourcePoint" />
            <mxPoint x="200" y="725" as="targetPoint" />
          </mxGeometry>
        </mxCell>
        <mxCell id="X5VpgKdFM8C6l-6GHkS9-52" value="T,E" style="text;html=1;align=center;verticalAlign=middle;resizable=0;points=[];autosize=1;strokeColor=none;fillColor=none;" vertex="1" parent="1">
          <mxGeometry x="30" y="873" width="40" height="30" as="geometry" />
        </mxCell>
        <mxCell id="X5VpgKdFM8C6l-6GHkS9-53" value="Eventos" style="rounded=0;whiteSpace=wrap;html=1;" vertex="1" parent="1">
          <mxGeometry x="674.9999999999995" y="820.1300000000001" width="120" height="70" as="geometry" />
        </mxCell>
        <mxCell id="X5VpgKdFM8C6l-6GHkS9-54" value="" style="endArrow=none;html=1;rounded=0;entryX=0.25;entryY=0;entryDx=0;entryDy=0;exitX=1;exitY=1;exitDx=0;exitDy=0;" edge="1" source="X5VpgKdFM8C6l-6GHkS9-55" target="X5VpgKdFM8C6l-6GHkS9-53" parent="1">
          <mxGeometry width="50" height="50" relative="1" as="geometry">
            <mxPoint x="784.9999999999995" y="730.13" as="sourcePoint" />
            <mxPoint x="734.9999999999995" y="790.13" as="targetPoint" />
          </mxGeometry>
        </mxCell>
        <mxCell id="X5VpgKdFM8C6l-6GHkS9-55" value="" style="ellipse;whiteSpace=wrap;html=1;aspect=fixed;rotation=15;" vertex="1" parent="1">
          <mxGeometry x="674.9999999999995" y="770.13" width="20" height="20" as="geometry" />
        </mxCell>
        <mxCell id="X5VpgKdFM8C6l-6GHkS9-59" value="Lugares" style="rounded=0;whiteSpace=wrap;html=1;" vertex="1" parent="1">
          <mxGeometry x="1079.9999999999995" y="1158" width="120" height="70" as="geometry" />
        </mxCell>
        <mxCell id="X5VpgKdFM8C6l-6GHkS9-60" value="" style="endArrow=none;html=1;rounded=0;entryX=0;entryY=0;entryDx=0;entryDy=0;exitX=1;exitY=1;exitDx=0;exitDy=0;" edge="1" source="X5VpgKdFM8C6l-6GHkS9-61" target="X5VpgKdFM8C6l-6GHkS9-59" parent="1">
          <mxGeometry width="50" height="50" relative="1" as="geometry">
            <mxPoint x="1209.9999999999995" y="1059" as="sourcePoint" />
            <mxPoint x="1159.9999999999995" y="1119" as="targetPoint" />
          </mxGeometry>
        </mxCell>
        <mxCell id="X5VpgKdFM8C6l-6GHkS9-61" value="" style="ellipse;whiteSpace=wrap;html=1;aspect=fixed;rotation=15;fillColor=#000000;" vertex="1" parent="1">
          <mxGeometry x="1059.9999999999995" y="1100" width="20" height="20" as="geometry" />
        </mxCell>
        <mxCell id="X5VpgKdFM8C6l-6GHkS9-65" value="Servicios" style="rounded=0;whiteSpace=wrap;html=1;" vertex="1" parent="1">
          <mxGeometry x="679.9999999999995" y="1420" width="120" height="70" as="geometry" />
        </mxCell>
        <mxCell id="X5VpgKdFM8C6l-6GHkS9-71" value="Nombre" style="text;html=1;align=center;verticalAlign=middle;resizable=0;points=[];autosize=1;strokeColor=none;fillColor=none;" vertex="1" parent="1">
          <mxGeometry x="640" y="736.5" width="70" height="30" as="geometry" />
        </mxCell>
        <mxCell id="X5VpgKdFM8C6l-6GHkS9-72" value="" style="endArrow=none;html=1;rounded=0;exitX=0;exitY=0;exitDx=0;exitDy=0;entryX=1;entryY=1;entryDx=0;entryDy=0;" edge="1" parent="1" source="X5VpgKdFM8C6l-6GHkS9-73" target="X5VpgKdFM8C6l-6GHkS9-53">
          <mxGeometry width="50" height="50" relative="1" as="geometry">
            <mxPoint x="852.5881904510252" y="905.3407417371093" as="sourcePoint" />
            <mxPoint x="865" y="865" as="targetPoint" />
          </mxGeometry>
        </mxCell>
        <mxCell id="X5VpgKdFM8C6l-6GHkS9-73" value="Direccion" style="ellipse;whiteSpace=wrap;html=1;" vertex="1" parent="1">
          <mxGeometry x="845" y="892" width="60" height="30" as="geometry" />
        </mxCell>
        <mxCell id="X5VpgKdFM8C6l-6GHkS9-74" value="" style="endArrow=none;html=1;rounded=0;exitX=1;exitY=0.5;exitDx=0;exitDy=0;entryX=0;entryY=1;entryDx=0;entryDy=0;" edge="1" parent="1" source="X5VpgKdFM8C6l-6GHkS9-77" target="X5VpgKdFM8C6l-6GHkS9-73">
          <mxGeometry width="50" height="50" relative="1" as="geometry">
            <mxPoint x="833.6602540378442" y="927.0000000000002" as="sourcePoint" />
            <mxPoint x="845" y="914" as="targetPoint" />
          </mxGeometry>
        </mxCell>
        <mxCell id="X5VpgKdFM8C6l-6GHkS9-75" value="" style="ellipse;whiteSpace=wrap;html=1;aspect=fixed;rotation=15;" vertex="1" parent="1">
          <mxGeometry x="835" y="954" width="20" height="20" as="geometry" />
        </mxCell>
        <mxCell id="X5VpgKdFM8C6l-6GHkS9-76" value="" style="endArrow=none;html=1;rounded=0;entryX=0.333;entryY=1.067;entryDx=0;entryDy=0;exitX=0.5;exitY=0;exitDx=0;exitDy=0;entryPerimeter=0;" edge="1" parent="1" source="X5VpgKdFM8C6l-6GHkS9-75" target="X5VpgKdFM8C6l-6GHkS9-73">
          <mxGeometry width="50" height="50" relative="1" as="geometry">
            <mxPoint x="859.9999999999998" y="943.3397459621558" as="sourcePoint" />
            <mxPoint x="890" y="924" as="targetPoint" />
          </mxGeometry>
        </mxCell>
        <mxCell id="X5VpgKdFM8C6l-6GHkS9-77" value="" style="ellipse;whiteSpace=wrap;html=1;aspect=fixed;rotation=-15;" vertex="1" parent="1">
          <mxGeometry x="815" y="922" width="20" height="20" as="geometry" />
        </mxCell>
        <mxCell id="X5VpgKdFM8C6l-6GHkS9-78" value="" style="endArrow=none;html=1;rounded=0;entryX=0.5;entryY=1;entryDx=0;entryDy=0;exitX=1;exitY=0;exitDx=0;exitDy=0;" edge="1" parent="1" source="X5VpgKdFM8C6l-6GHkS9-79" target="X5VpgKdFM8C6l-6GHkS9-73">
          <mxGeometry width="50" height="50" relative="1" as="geometry">
            <mxPoint x="1190" y="1145" as="sourcePoint" />
            <mxPoint x="1270" y="1088" as="targetPoint" />
          </mxGeometry>
        </mxCell>
        <mxCell id="X5VpgKdFM8C6l-6GHkS9-79" value="" style="ellipse;whiteSpace=wrap;html=1;aspect=fixed;rotation=-150;direction=south;" vertex="1" parent="1">
          <mxGeometry x="880.63" y="943.0899999999999" width="19.08" height="19.08" as="geometry" />
        </mxCell>
        <mxCell id="X5VpgKdFM8C6l-6GHkS9-80" value="Calle 1,1" style="text;html=1;align=center;verticalAlign=middle;resizable=0;points=[];autosize=1;strokeColor=none;fillColor=none;" vertex="1" parent="1">
          <mxGeometry x="805" y="974" width="70" height="30" as="geometry" />
        </mxCell>
        <mxCell id="X5VpgKdFM8C6l-6GHkS9-81" value="Nro 1,1" style="text;html=1;align=center;verticalAlign=middle;resizable=0;points=[];autosize=1;strokeColor=none;fillColor=none;" vertex="1" parent="1">
          <mxGeometry x="767" y="932.17" width="60" height="30" as="geometry" />
        </mxCell>
        <mxCell id="X5VpgKdFM8C6l-6GHkS9-82" value="Piso 0,1" style="text;html=1;align=center;verticalAlign=middle;resizable=0;points=[];autosize=1;strokeColor=none;fillColor=none;" vertex="1" parent="1">
          <mxGeometry x="870" y="972" width="70" height="30" as="geometry" />
        </mxCell>
        <mxCell id="X5VpgKdFM8C6l-6GHkS9-83" value="" style="endArrow=none;html=1;rounded=0;entryX=1;entryY=1;entryDx=0;entryDy=0;exitX=0.5;exitY=0;exitDx=0;exitDy=0;" edge="1" parent="1" source="X5VpgKdFM8C6l-6GHkS9-84" target="X5VpgKdFM8C6l-6GHkS9-73">
          <mxGeometry width="50" height="50" relative="1" as="geometry">
            <mxPoint x="960" y="922" as="sourcePoint" />
            <mxPoint x="960" y="885" as="targetPoint" />
          </mxGeometry>
        </mxCell>
        <mxCell id="X5VpgKdFM8C6l-6GHkS9-84" value="" style="ellipse;whiteSpace=wrap;html=1;aspect=fixed;rotation=-45;" vertex="1" parent="1">
          <mxGeometry x="915" y="930" width="20" height="20" as="geometry" />
        </mxCell>
        <mxCell id="X5VpgKdFM8C6l-6GHkS9-85" value="Dpto 0,1" style="text;html=1;align=center;verticalAlign=middle;resizable=0;points=[];autosize=1;strokeColor=none;fillColor=none;" vertex="1" parent="1">
          <mxGeometry x="925" y="934" width="70" height="30" as="geometry" />
        </mxCell>
        <mxCell id="X5VpgKdFM8C6l-6GHkS9-90" value="" style="endArrow=none;html=1;rounded=0;exitX=0.5;exitY=1;exitDx=0;exitDy=0;entryX=0.566;entryY=-0.007;entryDx=0;entryDy=0;entryPerimeter=0;" edge="1" source="X5VpgKdFM8C6l-6GHkS9-91" parent="1" target="X5VpgKdFM8C6l-6GHkS9-53">
          <mxGeometry width="50" height="50" relative="1" as="geometry">
            <mxPoint x="735" y="754" as="sourcePoint" />
            <mxPoint x="760" y="800" as="targetPoint" />
          </mxGeometry>
        </mxCell>
        <mxCell id="X5VpgKdFM8C6l-6GHkS9-91" value="" style="ellipse;whiteSpace=wrap;html=1;aspect=fixed;" vertex="1" parent="1">
          <mxGeometry x="725" y="764" width="20" height="20" as="geometry" />
        </mxCell>
        <mxCell id="X5VpgKdFM8C6l-6GHkS9-92" value="Fecha" style="text;html=1;align=center;verticalAlign=middle;resizable=0;points=[];autosize=1;strokeColor=none;fillColor=none;" vertex="1" parent="1">
          <mxGeometry x="705" y="734" width="60" height="30" as="geometry" />
        </mxCell>
        <mxCell id="X5VpgKdFM8C6l-6GHkS9-93" value="" style="endArrow=none;html=1;rounded=0;exitX=0.5;exitY=0;exitDx=0;exitDy=0;entryX=0.888;entryY=0.012;entryDx=0;entryDy=0;entryPerimeter=0;" edge="1" source="X5VpgKdFM8C6l-6GHkS9-94" parent="1" target="X5VpgKdFM8C6l-6GHkS9-53">
          <mxGeometry width="50" height="50" relative="1" as="geometry">
            <mxPoint x="775" y="754" as="sourcePoint" />
            <mxPoint x="780" y="800" as="targetPoint" />
          </mxGeometry>
        </mxCell>
        <mxCell id="X5VpgKdFM8C6l-6GHkS9-94" value="" style="ellipse;whiteSpace=wrap;html=1;aspect=fixed;" vertex="1" parent="1">
          <mxGeometry x="765" y="764" width="20" height="20" as="geometry" />
        </mxCell>
        <mxCell id="X5VpgKdFM8C6l-6GHkS9-95" value="Hora" style="text;html=1;align=center;verticalAlign=middle;resizable=0;points=[];autosize=1;strokeColor=none;fillColor=none;" vertex="1" parent="1">
          <mxGeometry x="755" y="734" width="50" height="30" as="geometry" />
        </mxCell>
        <mxCell id="X5VpgKdFM8C6l-6GHkS9-96" value="" style="endArrow=none;html=1;rounded=0;entryX=0;entryY=1;entryDx=0;entryDy=0;" edge="1" parent="1" target="X5VpgKdFM8C6l-6GHkS9-97">
          <mxGeometry width="50" height="50" relative="1" as="geometry">
            <mxPoint x="740" y="800" as="sourcePoint" />
            <mxPoint x="810" y="800" as="targetPoint" />
          </mxGeometry>
        </mxCell>
        <mxCell id="X5VpgKdFM8C6l-6GHkS9-97" value="" style="ellipse;whiteSpace=wrap;html=1;aspect=fixed;rotation=45;fillColor=#0A0A0A;" vertex="1" parent="1">
          <mxGeometry x="799.9999999999995" y="790.13" width="20" height="20" as="geometry" />
        </mxCell>
        <mxCell id="X5VpgKdFM8C6l-6GHkS9-98" value="" style="endArrow=none;html=1;rounded=0;exitX=0.5;exitY=0;exitDx=0;exitDy=0;entryX=0.25;entryY=1;entryDx=0;entryDy=0;" edge="1" source="X5VpgKdFM8C6l-6GHkS9-99" parent="1" target="X5VpgKdFM8C6l-6GHkS9-53">
          <mxGeometry width="50" height="50" relative="1" as="geometry">
            <mxPoint x="655" y="927" as="sourcePoint" />
            <mxPoint x="660" y="973" as="targetPoint" />
          </mxGeometry>
        </mxCell>
        <mxCell id="X5VpgKdFM8C6l-6GHkS9-99" value="" style="ellipse;whiteSpace=wrap;html=1;aspect=fixed;" vertex="1" parent="1">
          <mxGeometry x="685" y="918" width="20" height="20" as="geometry" />
        </mxCell>
        <mxCell id="X5VpgKdFM8C6l-6GHkS9-100" value="Duracion" style="text;html=1;align=center;verticalAlign=middle;resizable=0;points=[];autosize=1;strokeColor=none;fillColor=none;" vertex="1" parent="1">
          <mxGeometry x="650" y="933" width="70" height="30" as="geometry" />
        </mxCell>
        <mxCell id="X5VpgKdFM8C6l-6GHkS9-101" value="Organiza" style="rhombus;whiteSpace=wrap;html=1;" vertex="1" parent="1">
          <mxGeometry x="470" y="699" width="60" height="60" as="geometry" />
        </mxCell>
        <mxCell id="X5VpgKdFM8C6l-6GHkS9-102" value="" style="endArrow=none;html=1;rounded=0;exitX=1;exitY=0.5;exitDx=0;exitDy=0;entryX=0;entryY=0.5;entryDx=0;entryDy=0;" edge="1" parent="1" source="X5VpgKdFM8C6l-6GHkS9-2" target="X5VpgKdFM8C6l-6GHkS9-101">
          <mxGeometry width="50" height="50" relative="1" as="geometry">
            <mxPoint x="390" y="770" as="sourcePoint" />
            <mxPoint x="440" y="720" as="targetPoint" />
          </mxGeometry>
        </mxCell>
        <mxCell id="X5VpgKdFM8C6l-6GHkS9-103" value="" style="endArrow=none;html=1;rounded=0;entryX=0;entryY=0.5;entryDx=0;entryDy=0;exitX=1;exitY=0.5;exitDx=0;exitDy=0;" edge="1" parent="1" source="X5VpgKdFM8C6l-6GHkS9-101" target="X5VpgKdFM8C6l-6GHkS9-53">
          <mxGeometry width="50" height="50" relative="1" as="geometry">
            <mxPoint x="610" y="850" as="sourcePoint" />
            <mxPoint x="660" y="800" as="targetPoint" />
            <Array as="points">
              <mxPoint x="600" y="735" />
            </Array>
          </mxGeometry>
        </mxCell>
        <mxCell id="X5VpgKdFM8C6l-6GHkS9-110" value="" style="endArrow=none;html=1;rounded=0;entryX=0;entryY=0.25;entryDx=0;entryDy=0;exitX=1;exitY=0.5;exitDx=0;exitDy=0;" edge="1" parent="1" source="X5VpgKdFM8C6l-6GHkS9-111" target="X5VpgKdFM8C6l-6GHkS9-32">
          <mxGeometry width="50" height="50" relative="1" as="geometry">
            <mxPoint x="-240" y="890" as="sourcePoint" />
            <mxPoint x="-250" y="880" as="targetPoint" />
          </mxGeometry>
        </mxCell>
        <mxCell id="X5VpgKdFM8C6l-6GHkS9-111" value="Nombre completo" style="ellipse;whiteSpace=wrap;html=1;" vertex="1" parent="1">
          <mxGeometry x="-310" y="863" width="80" height="40" as="geometry" />
        </mxCell>
        <mxCell id="X5VpgKdFM8C6l-6GHkS9-112" value="" style="endArrow=none;html=1;rounded=0;exitX=1;exitY=0.5;exitDx=0;exitDy=0;" edge="1" source="X5VpgKdFM8C6l-6GHkS9-113" parent="1">
          <mxGeometry width="50" height="50" relative="1" as="geometry">
            <mxPoint x="-320" y="817" as="sourcePoint" />
            <mxPoint x="-298" y="869" as="targetPoint" />
          </mxGeometry>
        </mxCell>
        <mxCell id="X5VpgKdFM8C6l-6GHkS9-113" value="" style="ellipse;whiteSpace=wrap;html=1;aspect=fixed;" vertex="1" parent="1">
          <mxGeometry x="-355" y="853" width="20" height="20" as="geometry" />
        </mxCell>
        <mxCell id="X5VpgKdFM8C6l-6GHkS9-114" value="Nombre" style="text;html=1;align=center;verticalAlign=middle;resizable=0;points=[];autosize=1;strokeColor=none;fillColor=none;" vertex="1" parent="1">
          <mxGeometry x="-430" y="848" width="70" height="30" as="geometry" />
        </mxCell>
        <mxCell id="X5VpgKdFM8C6l-6GHkS9-115" value="" style="endArrow=none;html=1;rounded=0;entryX=0;entryY=1;entryDx=0;entryDy=0;exitX=1;exitY=0;exitDx=0;exitDy=0;" edge="1" source="X5VpgKdFM8C6l-6GHkS9-116" parent="1" target="X5VpgKdFM8C6l-6GHkS9-111">
          <mxGeometry width="50" height="50" relative="1" as="geometry">
            <mxPoint x="-335" y="905" as="sourcePoint" />
            <mxPoint x="-335" y="868" as="targetPoint" />
          </mxGeometry>
        </mxCell>
        <mxCell id="X5VpgKdFM8C6l-6GHkS9-116" value="" style="ellipse;whiteSpace=wrap;html=1;aspect=fixed;" vertex="1" parent="1">
          <mxGeometry x="-355" y="903" width="20" height="20" as="geometry" />
        </mxCell>
        <mxCell id="X5VpgKdFM8C6l-6GHkS9-117" value="Apellido" style="text;html=1;align=center;verticalAlign=middle;resizable=0;points=[];autosize=1;strokeColor=none;fillColor=none;" vertex="1" parent="1">
          <mxGeometry x="-425" y="898" width="70" height="30" as="geometry" />
        </mxCell>
        <mxCell id="X5VpgKdFM8C6l-6GHkS9-118" value="" style="endArrow=none;html=1;rounded=0;exitX=0.5;exitY=0;exitDx=0;exitDy=0;entryX=0.5;entryY=0;entryDx=0;entryDy=0;" edge="1" source="X5VpgKdFM8C6l-6GHkS9-119" parent="1" target="X5VpgKdFM8C6l-6GHkS9-101">
          <mxGeometry width="50" height="50" relative="1" as="geometry">
            <mxPoint x="500" y="621" as="sourcePoint" />
            <mxPoint x="505" y="667" as="targetPoint" />
          </mxGeometry>
        </mxCell>
        <mxCell id="X5VpgKdFM8C6l-6GHkS9-119" value="" style="ellipse;whiteSpace=wrap;html=1;aspect=fixed;" vertex="1" parent="1">
          <mxGeometry x="490" y="655" width="20" height="20" as="geometry" />
        </mxCell>
        <mxCell id="X5VpgKdFM8C6l-6GHkS9-120" value="Rol" style="text;html=1;align=center;verticalAlign=middle;resizable=0;points=[];autosize=1;strokeColor=none;fillColor=none;" vertex="1" parent="1">
          <mxGeometry x="480" y="625" width="40" height="30" as="geometry" />
        </mxCell>
        <mxCell id="X5VpgKdFM8C6l-6GHkS9-121" value="" style="endArrow=none;html=1;rounded=0;entryX=0.5;entryY=1;entryDx=0;entryDy=0;" edge="1" parent="1" source="X5VpgKdFM8C6l-6GHkS9-122" target="X5VpgKdFM8C6l-6GHkS9-14">
          <mxGeometry width="50" height="50" relative="1" as="geometry">
            <mxPoint x="330" y="1210" as="sourcePoint" />
            <mxPoint x="370" y="1280" as="targetPoint" />
          </mxGeometry>
        </mxCell>
        <mxCell id="X5VpgKdFM8C6l-6GHkS9-122" value="Trabaja" style="rhombus;whiteSpace=wrap;html=1;" vertex="1" parent="1">
          <mxGeometry x="300.5" y="1180" width="59" height="60" as="geometry" />
        </mxCell>
        <mxCell id="X5VpgKdFM8C6l-6GHkS9-123" value="" style="endArrow=none;html=1;rounded=0;entryX=0.5;entryY=1;entryDx=0;entryDy=0;exitX=0.5;exitY=0;exitDx=0;exitDy=0;" edge="1" parent="1" source="X5VpgKdFM8C6l-6GHkS9-124" target="X5VpgKdFM8C6l-6GHkS9-122">
          <mxGeometry width="50" height="50" relative="1" as="geometry">
            <mxPoint x="330" y="1330" as="sourcePoint" />
            <mxPoint x="280" y="1300" as="targetPoint" />
          </mxGeometry>
        </mxCell>
        <mxCell id="X5VpgKdFM8C6l-6GHkS9-124" value="Gastronomias" style="rounded=0;whiteSpace=wrap;html=1;" vertex="1" parent="1">
          <mxGeometry x="270.99999999999955" y="1350" width="120" height="70" as="geometry" />
        </mxCell>
        <mxCell id="X5VpgKdFM8C6l-6GHkS9-127" value="" style="endArrow=none;html=1;rounded=0;entryX=0;entryY=0.25;entryDx=0;entryDy=0;exitX=0.875;exitY=0.283;exitDx=0;exitDy=0;exitPerimeter=0;" edge="1" source="X5VpgKdFM8C6l-6GHkS9-128" target="X5VpgKdFM8C6l-6GHkS9-124" parent="1">
          <mxGeometry width="50" height="50" relative="1" as="geometry">
            <mxPoint x="160.99999999999955" y="1404" as="sourcePoint" />
            <mxPoint x="230.99999999999955" y="1404" as="targetPoint" />
          </mxGeometry>
        </mxCell>
        <mxCell id="X5VpgKdFM8C6l-6GHkS9-128" value="" style="ellipse;whiteSpace=wrap;html=1;aspect=fixed;rotation=30;fillColor=#0A0A0A;" vertex="1" parent="1">
          <mxGeometry x="210.99999999999955" y="1360" width="20" height="20" as="geometry" />
        </mxCell>
        <mxCell id="X5VpgKdFM8C6l-6GHkS9-132" value="Nombre" style="text;html=1;align=center;verticalAlign=middle;resizable=0;points=[];autosize=1;strokeColor=none;fillColor=none;" vertex="1" parent="1">
          <mxGeometry x="141" y="1355" width="70" height="30" as="geometry" />
        </mxCell>
        <mxCell id="X5VpgKdFM8C6l-6GHkS9-133" value="1,N" style="text;html=1;align=center;verticalAlign=middle;resizable=0;points=[];autosize=1;strokeColor=none;fillColor=none;" vertex="1" parent="1">
          <mxGeometry x="350" y="1308" width="40" height="30" as="geometry" />
        </mxCell>
        <mxCell id="X5VpgKdFM8C6l-6GHkS9-134" value="1,1" style="text;html=1;align=center;verticalAlign=middle;resizable=0;points=[];autosize=1;strokeColor=none;fillColor=none;" vertex="1" parent="1">
          <mxGeometry x="330" y="1118" width="40" height="30" as="geometry" />
        </mxCell>
        <mxCell id="X5VpgKdFM8C6l-6GHkS9-135" value="" style="endArrow=none;html=1;rounded=0;entryX=0.54;entryY=0.994;entryDx=0;entryDy=0;exitX=0.5;exitY=0;exitDx=0;exitDy=0;entryPerimeter=0;" edge="1" parent="1" source="X5VpgKdFM8C6l-6GHkS9-136" target="X5VpgKdFM8C6l-6GHkS9-53">
          <mxGeometry width="50" height="50" relative="1" as="geometry">
            <mxPoint x="735" y="1050" as="sourcePoint" />
            <mxPoint x="780" y="970" as="targetPoint" />
          </mxGeometry>
        </mxCell>
        <mxCell id="X5VpgKdFM8C6l-6GHkS9-136" value="Hay" style="rhombus;whiteSpace=wrap;html=1;" vertex="1" parent="1">
          <mxGeometry x="715" y="1004" width="50" height="43" as="geometry" />
        </mxCell>
        <mxCell id="X5VpgKdFM8C6l-6GHkS9-137" value="Alquileres" style="rounded=0;whiteSpace=wrap;html=1;" vertex="1" parent="1">
          <mxGeometry x="679.9999999999995" y="1170" width="120" height="70" as="geometry" />
        </mxCell>
        <mxCell id="X5VpgKdFM8C6l-6GHkS9-138" value="" style="endArrow=none;html=1;rounded=0;entryX=0.25;entryY=0;entryDx=0;entryDy=0;exitX=1;exitY=1;exitDx=0;exitDy=0;" edge="1" source="X5VpgKdFM8C6l-6GHkS9-139" target="X5VpgKdFM8C6l-6GHkS9-137" parent="1">
          <mxGeometry width="50" height="50" relative="1" as="geometry">
            <mxPoint x="789.9999999999995" y="1080" as="sourcePoint" />
            <mxPoint x="739.9999999999995" y="1140" as="targetPoint" />
          </mxGeometry>
        </mxCell>
        <mxCell id="X5VpgKdFM8C6l-6GHkS9-139" value="" style="ellipse;whiteSpace=wrap;html=1;aspect=fixed;rotation=15;" vertex="1" parent="1">
          <mxGeometry x="679.9999999999995" y="1120" width="20" height="20" as="geometry" />
        </mxCell>
        <mxCell id="X5VpgKdFM8C6l-6GHkS9-142" value="Fecha y hora" style="text;html=1;align=center;verticalAlign=middle;resizable=0;points=[];autosize=1;strokeColor=none;fillColor=none;" vertex="1" parent="1">
          <mxGeometry x="639.9999999999995" y="1090" width="90" height="30" as="geometry" />
        </mxCell>
        <mxCell id="X5VpgKdFM8C6l-6GHkS9-143" value="" style="endArrow=none;html=1;rounded=0;entryX=0.5;entryY=1;entryDx=0;entryDy=0;exitX=0.5;exitY=0;exitDx=0;exitDy=0;" edge="1" parent="1" source="X5VpgKdFM8C6l-6GHkS9-137" target="X5VpgKdFM8C6l-6GHkS9-136">
          <mxGeometry width="50" height="50" relative="1" as="geometry">
            <mxPoint x="730" y="1150" as="sourcePoint" />
            <mxPoint x="780" y="1100" as="targetPoint" />
          </mxGeometry>
        </mxCell>
        <mxCell id="X5VpgKdFM8C6l-6GHkS9-144" value="tiene" style="rhombus;whiteSpace=wrap;html=1;" vertex="1" parent="1">
          <mxGeometry x="500" y="1120" width="50" height="50" as="geometry" />
        </mxCell>
        <mxCell id="X5VpgKdFM8C6l-6GHkS9-145" value="" style="endArrow=none;html=1;rounded=0;exitX=1;exitY=0.5;exitDx=0;exitDy=0;entryX=0;entryY=0.5;entryDx=0;entryDy=0;" edge="1" parent="1" source="X5VpgKdFM8C6l-6GHkS9-14" target="X5VpgKdFM8C6l-6GHkS9-144">
          <mxGeometry width="50" height="50" relative="1" as="geometry">
            <mxPoint x="420" y="1150" as="sourcePoint" />
            <mxPoint x="470" y="1100" as="targetPoint" />
          </mxGeometry>
        </mxCell>
        <mxCell id="X5VpgKdFM8C6l-6GHkS9-146" value="" style="endArrow=none;html=1;rounded=0;entryX=0;entryY=0.5;entryDx=0;entryDy=0;exitX=1;exitY=0.5;exitDx=0;exitDy=0;" edge="1" parent="1" source="X5VpgKdFM8C6l-6GHkS9-144" target="X5VpgKdFM8C6l-6GHkS9-137">
          <mxGeometry width="50" height="50" relative="1" as="geometry">
            <mxPoint x="570" y="1200" as="sourcePoint" />
            <mxPoint x="620" y="1150" as="targetPoint" />
          </mxGeometry>
        </mxCell>
        <mxCell id="X5VpgKdFM8C6l-6GHkS9-148" value="" style="endArrow=none;html=1;rounded=0;exitX=1;exitY=0.5;exitDx=0;exitDy=0;edgeStyle=orthogonalEdgeStyle;curved=1;entryX=0;entryY=0.5;entryDx=0;entryDy=0;" edge="1" parent="1" source="X5VpgKdFM8C6l-6GHkS9-14" target="X5VpgKdFM8C6l-6GHkS9-149">
          <mxGeometry width="50" height="50" relative="1" as="geometry">
            <mxPoint x="500" y="1100" as="sourcePoint" />
            <mxPoint x="720" y="1150" as="targetPoint" />
            <Array as="points">
              <mxPoint x="580" y="1080" />
              <mxPoint x="580" y="1150" />
              <mxPoint x="720" y="1150" />
            </Array>
          </mxGeometry>
        </mxCell>
        <mxCell id="X5VpgKdFM8C6l-6GHkS9-149" value="" style="ellipse;whiteSpace=wrap;html=1;aspect=fixed;fillColor=#000000;" vertex="1" parent="1">
          <mxGeometry x="720" y="1148" width="10" height="10" as="geometry" />
        </mxCell>
        <mxCell id="X5VpgKdFM8C6l-6GHkS9-151" value="Vende" style="rhombus;whiteSpace=wrap;html=1;" vertex="1" parent="1">
          <mxGeometry x="470" y="825.13" width="60" height="60" as="geometry" />
        </mxCell>
        <mxCell id="X5VpgKdFM8C6l-6GHkS9-152" value="" style="endArrow=none;html=1;rounded=0;exitX=1;exitY=0;exitDx=0;exitDy=0;entryX=0;entryY=0.5;entryDx=0;entryDy=0;" edge="1" parent="1" source="X5VpgKdFM8C6l-6GHkS9-14" target="X5VpgKdFM8C6l-6GHkS9-151">
          <mxGeometry width="50" height="50" relative="1" as="geometry">
            <mxPoint x="420" y="1020" as="sourcePoint" />
            <mxPoint x="470" y="970" as="targetPoint" />
          </mxGeometry>
        </mxCell>
        <mxCell id="X5VpgKdFM8C6l-6GHkS9-153" value="" style="endArrow=none;html=1;rounded=0;exitX=1;exitY=0.5;exitDx=0;exitDy=0;entryX=0;entryY=0.5;entryDx=0;entryDy=0;" edge="1" parent="1" source="X5VpgKdFM8C6l-6GHkS9-151" target="X5VpgKdFM8C6l-6GHkS9-53">
          <mxGeometry width="50" height="50" relative="1" as="geometry">
            <mxPoint x="580" y="900" as="sourcePoint" />
            <mxPoint x="630" y="850" as="targetPoint" />
          </mxGeometry>
        </mxCell>
        <mxCell id="X5VpgKdFM8C6l-6GHkS9-154" value="" style="endArrow=none;html=1;rounded=0;entryX=0.5;entryY=1;entryDx=0;entryDy=0;" edge="1" parent="1" source="X5VpgKdFM8C6l-6GHkS9-155" target="X5VpgKdFM8C6l-6GHkS9-137">
          <mxGeometry width="50" height="50" relative="1" as="geometry">
            <mxPoint x="740" y="1300" as="sourcePoint" />
            <mxPoint x="735" y="1270" as="targetPoint" />
          </mxGeometry>
        </mxCell>
        <mxCell id="X5VpgKdFM8C6l-6GHkS9-155" value="de" style="rhombus;whiteSpace=wrap;html=1;" vertex="1" parent="1">
          <mxGeometry x="715" y="1288" width="50" height="50" as="geometry" />
        </mxCell>
        <mxCell id="X5VpgKdFM8C6l-6GHkS9-156" value="" style="endArrow=none;html=1;rounded=0;entryX=0.5;entryY=1;entryDx=0;entryDy=0;" edge="1" parent="1" source="X5VpgKdFM8C6l-6GHkS9-65" target="X5VpgKdFM8C6l-6GHkS9-155">
          <mxGeometry width="50" height="50" relative="1" as="geometry">
            <mxPoint x="710" y="1400" as="sourcePoint" />
            <mxPoint x="760" y="1350" as="targetPoint" />
          </mxGeometry>
        </mxCell>
        <mxCell id="X5VpgKdFM8C6l-6GHkS9-157" value="de" style="rhombus;whiteSpace=wrap;html=1;" vertex="1" parent="1">
          <mxGeometry x="875" y="1169" width="50" height="50" as="geometry" />
        </mxCell>
        <mxCell id="X5VpgKdFM8C6l-6GHkS9-158" value="" style="endArrow=none;html=1;rounded=0;entryX=0;entryY=0.5;entryDx=0;entryDy=0;exitX=1;exitY=0.5;exitDx=0;exitDy=0;" edge="1" parent="1" source="X5VpgKdFM8C6l-6GHkS9-137" target="X5VpgKdFM8C6l-6GHkS9-157">
          <mxGeometry width="50" height="50" relative="1" as="geometry">
            <mxPoint x="820" y="1320" as="sourcePoint" />
            <mxPoint x="870" y="1270" as="targetPoint" />
          </mxGeometry>
        </mxCell>
        <mxCell id="X5VpgKdFM8C6l-6GHkS9-159" value="" style="endArrow=none;html=1;rounded=0;exitX=1;exitY=0.5;exitDx=0;exitDy=0;entryX=0;entryY=0.5;entryDx=0;entryDy=0;" edge="1" parent="1" source="X5VpgKdFM8C6l-6GHkS9-157" target="X5VpgKdFM8C6l-6GHkS9-59">
          <mxGeometry width="50" height="50" relative="1" as="geometry">
            <mxPoint x="930" y="1190" as="sourcePoint" />
            <mxPoint x="1050" y="1220" as="targetPoint" />
          </mxGeometry>
        </mxCell>
        <mxCell id="X5VpgKdFM8C6l-6GHkS9-160" value="" style="endArrow=none;html=1;rounded=0;entryX=0;entryY=1;entryDx=0;entryDy=0;exitX=0.5;exitY=0;exitDx=0;exitDy=0;" edge="1" source="X5VpgKdFM8C6l-6GHkS9-161" parent="1" target="X5VpgKdFM8C6l-6GHkS9-65">
          <mxGeometry width="50" height="50" relative="1" as="geometry">
            <mxPoint x="681" y="1537" as="sourcePoint" />
            <mxPoint x="681" y="1500" as="targetPoint" />
          </mxGeometry>
        </mxCell>
        <mxCell id="X5VpgKdFM8C6l-6GHkS9-161" value="" style="ellipse;whiteSpace=wrap;html=1;aspect=fixed;fillColor=#000000;rotation=15;" vertex="1" parent="1">
          <mxGeometry x="660" y="1537" width="20" height="20" as="geometry" />
        </mxCell>
        <mxCell id="X5VpgKdFM8C6l-6GHkS9-162" value="Nombre" style="text;html=1;align=center;verticalAlign=middle;resizable=0;points=[];autosize=1;strokeColor=none;fillColor=none;" vertex="1" parent="1">
          <mxGeometry x="630" y="1552" width="70" height="30" as="geometry" />
        </mxCell>
        <mxCell id="X5VpgKdFM8C6l-6GHkS9-163" value="" style="endArrow=none;html=1;rounded=0;entryX=0.5;entryY=1;entryDx=0;entryDy=0;exitX=0.5;exitY=0;exitDx=0;exitDy=0;" edge="1" source="X5VpgKdFM8C6l-6GHkS9-164" parent="1" target="X5VpgKdFM8C6l-6GHkS9-65">
          <mxGeometry width="50" height="50" relative="1" as="geometry">
            <mxPoint x="761" y="1537" as="sourcePoint" />
            <mxPoint x="761" y="1500" as="targetPoint" />
          </mxGeometry>
        </mxCell>
        <mxCell id="X5VpgKdFM8C6l-6GHkS9-164" value="" style="ellipse;whiteSpace=wrap;html=1;aspect=fixed;" vertex="1" parent="1">
          <mxGeometry x="730" y="1537" width="20" height="20" as="geometry" />
        </mxCell>
        <mxCell id="X5VpgKdFM8C6l-6GHkS9-165" value="Desc" style="text;html=1;align=center;verticalAlign=middle;resizable=0;points=[];autosize=1;strokeColor=none;fillColor=none;" vertex="1" parent="1">
          <mxGeometry x="715" y="1557" width="50" height="30" as="geometry" />
        </mxCell>
        <mxCell id="X5VpgKdFM8C6l-6GHkS9-166" value="" style="endArrow=none;html=1;rounded=0;exitX=0.5;exitY=0;exitDx=0;exitDy=0;entryX=1;entryY=1;entryDx=0;entryDy=0;" edge="1" source="X5VpgKdFM8C6l-6GHkS9-167" parent="1" target="X5VpgKdFM8C6l-6GHkS9-65">
          <mxGeometry width="50" height="50" relative="1" as="geometry">
            <mxPoint x="831" y="1547" as="sourcePoint" />
            <mxPoint x="831" y="1510" as="targetPoint" />
          </mxGeometry>
        </mxCell>
        <mxCell id="X5VpgKdFM8C6l-6GHkS9-167" value="" style="ellipse;whiteSpace=wrap;html=1;aspect=fixed;" vertex="1" parent="1">
          <mxGeometry x="800" y="1537" width="20" height="20" as="geometry" />
        </mxCell>
        <mxCell id="X5VpgKdFM8C6l-6GHkS9-168" value="Precio" style="text;html=1;align=center;verticalAlign=middle;resizable=0;points=[];autosize=1;strokeColor=none;fillColor=none;" vertex="1" parent="1">
          <mxGeometry x="780" y="1552" width="60" height="30" as="geometry" />
        </mxCell>
        <mxCell id="X5VpgKdFM8C6l-6GHkS9-172" value="" style="endArrow=none;html=1;rounded=0;entryX=0.75;entryY=1;entryDx=0;entryDy=0;exitX=0.5;exitY=0;exitDx=0;exitDy=0;" edge="1" source="X5VpgKdFM8C6l-6GHkS9-173" parent="1" target="X5VpgKdFM8C6l-6GHkS9-59">
          <mxGeometry width="50" height="50" relative="1" as="geometry">
            <mxPoint x="1190" y="1268" as="sourcePoint" />
            <mxPoint x="1190" y="1231" as="targetPoint" />
          </mxGeometry>
        </mxCell>
        <mxCell id="X5VpgKdFM8C6l-6GHkS9-173" value="" style="ellipse;whiteSpace=wrap;html=1;aspect=fixed;rotation=-15;" vertex="1" parent="1">
          <mxGeometry x="1180" y="1278" width="20" height="20" as="geometry" />
        </mxCell>
        <mxCell id="X5VpgKdFM8C6l-6GHkS9-174" value="Desc" style="text;html=1;align=center;verticalAlign=middle;resizable=0;points=[];autosize=1;strokeColor=none;fillColor=none;" vertex="1" parent="1">
          <mxGeometry x="1165" y="1296" width="50" height="30" as="geometry" />
        </mxCell>
        <mxCell id="X5VpgKdFM8C6l-6GHkS9-175" value="" style="endArrow=none;html=1;rounded=0;entryX=0.126;entryY=0.988;entryDx=0;entryDy=0;exitX=0.5;exitY=0;exitDx=0;exitDy=0;entryPerimeter=0;" edge="1" source="X5VpgKdFM8C6l-6GHkS9-176" parent="1" target="X5VpgKdFM8C6l-6GHkS9-59">
          <mxGeometry width="50" height="50" relative="1" as="geometry">
            <mxPoint x="1080" y="1268" as="sourcePoint" />
            <mxPoint x="1080" y="1231" as="targetPoint" />
          </mxGeometry>
        </mxCell>
        <mxCell id="X5VpgKdFM8C6l-6GHkS9-176" value="" style="ellipse;whiteSpace=wrap;html=1;aspect=fixed;rotation=15;" vertex="1" parent="1">
          <mxGeometry x="1070" y="1278" width="20" height="20" as="geometry" />
        </mxCell>
        <mxCell id="X5VpgKdFM8C6l-6GHkS9-177" value="M2" style="text;html=1;align=center;verticalAlign=middle;resizable=0;points=[];autosize=1;strokeColor=none;fillColor=none;" vertex="1" parent="1">
          <mxGeometry x="1060" y="1296" width="40" height="30" as="geometry" />
        </mxCell>
        <mxCell id="X5VpgKdFM8C6l-6GHkS9-178" value="" style="endArrow=none;html=1;rounded=0;entryX=1.001;entryY=0.59;entryDx=0;entryDy=0;exitX=0;exitY=0.5;exitDx=0;exitDy=0;entryPerimeter=0;" edge="1" source="X5VpgKdFM8C6l-6GHkS9-179" parent="1" target="X5VpgKdFM8C6l-6GHkS9-59">
          <mxGeometry width="50" height="50" relative="1" as="geometry">
            <mxPoint x="1290" y="1237" as="sourcePoint" />
            <mxPoint x="1290" y="1200" as="targetPoint" />
          </mxGeometry>
        </mxCell>
        <mxCell id="X5VpgKdFM8C6l-6GHkS9-179" value="" style="ellipse;whiteSpace=wrap;html=1;aspect=fixed;" vertex="1" parent="1">
          <mxGeometry x="1270" y="1208" width="20" height="20" as="geometry" />
        </mxCell>
        <mxCell id="X5VpgKdFM8C6l-6GHkS9-180" value="Ubicacion" style="text;html=1;align=center;verticalAlign=middle;resizable=0;points=[];autosize=1;strokeColor=none;fillColor=none;" vertex="1" parent="1">
          <mxGeometry x="1290" y="1208" width="80" height="30" as="geometry" />
        </mxCell>
        <mxCell id="X5VpgKdFM8C6l-6GHkS9-181" value="" style="endArrow=none;html=1;rounded=0;exitX=0.5;exitY=0;exitDx=0;exitDy=0;entryX=1;entryY=0;entryDx=0;entryDy=0;" edge="1" source="X5VpgKdFM8C6l-6GHkS9-182" parent="1" target="X5VpgKdFM8C6l-6GHkS9-59">
          <mxGeometry width="50" height="50" relative="1" as="geometry">
            <mxPoint x="1210" y="1055" as="sourcePoint" />
            <mxPoint x="1160" y="1130" as="targetPoint" />
          </mxGeometry>
        </mxCell>
        <mxCell id="X5VpgKdFM8C6l-6GHkS9-182" value="" style="ellipse;whiteSpace=wrap;html=1;aspect=fixed;" vertex="1" parent="1">
          <mxGeometry x="1200" y="1100" width="20" height="20" as="geometry" />
        </mxCell>
        <mxCell id="X5VpgKdFM8C6l-6GHkS9-183" value="Distancia a puerta" style="text;html=1;align=center;verticalAlign=middle;resizable=0;points=[];autosize=1;strokeColor=none;fillColor=none;" vertex="1" parent="1">
          <mxGeometry x="1160" y="1070" width="120" height="30" as="geometry" />
        </mxCell>
        <mxCell id="X5VpgKdFM8C6l-6GHkS9-184" value="" style="endArrow=none;html=1;rounded=0;exitX=0;exitY=0.5;exitDx=0;exitDy=0;entryX=0.5;entryY=1;entryDx=0;entryDy=0;" edge="1" source="X5VpgKdFM8C6l-6GHkS9-185" parent="1" target="X5VpgKdFM8C6l-6GHkS9-157">
          <mxGeometry width="50" height="50" relative="1" as="geometry">
            <mxPoint x="881" y="1232.5" as="sourcePoint" />
            <mxPoint x="900" y="1220" as="targetPoint" />
          </mxGeometry>
        </mxCell>
        <mxCell id="X5VpgKdFM8C6l-6GHkS9-185" value="" style="ellipse;whiteSpace=wrap;html=1;aspect=fixed;rotation=90;" vertex="1" parent="1">
          <mxGeometry x="890" y="1250" width="20" height="20" as="geometry" />
        </mxCell>
        <mxCell id="X5VpgKdFM8C6l-6GHkS9-186" value="Precio por dia" style="text;html=1;align=center;verticalAlign=middle;resizable=0;points=[];autosize=1;strokeColor=none;fillColor=none;" vertex="1" parent="1">
          <mxGeometry x="850" y="1268" width="100" height="30" as="geometry" />
        </mxCell>
        <mxCell id="X5VpgKdFM8C6l-6GHkS9-187" value="Numero" style="text;html=1;align=center;verticalAlign=middle;resizable=0;points=[];autosize=1;strokeColor=none;fillColor=none;" vertex="1" parent="1">
          <mxGeometry x="1015" y="1068" width="70" height="30" as="geometry" />
        </mxCell>
        <mxCell id="X5VpgKdFM8C6l-6GHkS9-189" value="" style="endArrow=none;html=1;rounded=0;exitX=1;exitY=0.5;exitDx=0;exitDy=0;entryX=0;entryY=0.5;entryDx=0;entryDy=0;" edge="1" source="X5VpgKdFM8C6l-6GHkS9-190" parent="1" target="X5VpgKdFM8C6l-6GHkS9-155">
          <mxGeometry width="50" height="50" relative="1" as="geometry">
            <mxPoint x="662" y="1383" as="sourcePoint" />
            <mxPoint x="721" y="1339" as="targetPoint" />
          </mxGeometry>
        </mxCell>
        <mxCell id="X5VpgKdFM8C6l-6GHkS9-190" value="" style="ellipse;whiteSpace=wrap;html=1;aspect=fixed;" vertex="1" parent="1">
          <mxGeometry x="655" y="1303" width="20" height="20" as="geometry" />
        </mxCell>
        <mxCell id="X5VpgKdFM8C6l-6GHkS9-191" value="Preico alquiler" style="text;html=1;align=center;verticalAlign=middle;resizable=0;points=[];autosize=1;strokeColor=none;fillColor=none;" vertex="1" parent="1">
          <mxGeometry x="555" y="1298" width="100" height="30" as="geometry" />
        </mxCell>
        <mxCell id="X5VpgKdFM8C6l-6GHkS9-193" value="1,N" style="text;html=1;align=center;verticalAlign=middle;resizable=0;points=[];autosize=1;strokeColor=none;fillColor=none;" vertex="1" parent="1">
          <mxGeometry x="361" y="725" width="40" height="30" as="geometry" />
        </mxCell>
        <mxCell id="X5VpgKdFM8C6l-6GHkS9-194" value="1,N" style="text;html=1;align=center;verticalAlign=middle;resizable=0;points=[];autosize=1;strokeColor=none;fillColor=none;" vertex="1" parent="1">
          <mxGeometry x="585" y="765.13" width="40" height="30" as="geometry" />
        </mxCell>
        <mxCell id="X5VpgKdFM8C6l-6GHkS9-195" value="1,N" style="text;html=1;align=center;verticalAlign=middle;resizable=0;points=[];autosize=1;strokeColor=none;fillColor=none;" vertex="1" parent="1">
          <mxGeometry x="630" y="858" width="40" height="30" as="geometry" />
        </mxCell>
        <mxCell id="X5VpgKdFM8C6l-6GHkS9-197" value="1,N" style="text;html=1;align=center;verticalAlign=middle;resizable=0;points=[];autosize=1;strokeColor=none;fillColor=none;" vertex="1" parent="1">
          <mxGeometry x="400" y="998" width="40" height="30" as="geometry" />
        </mxCell>
        <mxCell id="X5VpgKdFM8C6l-6GHkS9-198" value="1,N" style="text;html=1;align=center;verticalAlign=middle;resizable=0;points=[];autosize=1;strokeColor=none;fillColor=none;" vertex="1" parent="1">
          <mxGeometry x="400" y="1098" width="40" height="30" as="geometry" />
        </mxCell>
        <mxCell id="X5VpgKdFM8C6l-6GHkS9-199" value="1,1" style="text;html=1;align=center;verticalAlign=middle;resizable=0;points=[];autosize=1;strokeColor=none;fillColor=none;" vertex="1" parent="1">
          <mxGeometry x="630" y="1188" width="40" height="30" as="geometry" />
        </mxCell>
        <mxCell id="X5VpgKdFM8C6l-6GHkS9-200" value="1,N" style="text;html=1;align=center;verticalAlign=middle;resizable=0;points=[];autosize=1;strokeColor=none;fillColor=none;" vertex="1" parent="1">
          <mxGeometry x="740" y="895" width="40" height="30" as="geometry" />
        </mxCell>
        <mxCell id="X5VpgKdFM8C6l-6GHkS9-202" value="1,1" style="text;html=1;align=center;verticalAlign=middle;resizable=0;points=[];autosize=1;strokeColor=none;fillColor=none;" vertex="1" parent="1">
          <mxGeometry x="740" y="1138" width="40" height="30" as="geometry" />
        </mxCell>
        <mxCell id="X5VpgKdFM8C6l-6GHkS9-203" value="1,N" style="text;html=1;align=center;verticalAlign=middle;resizable=0;points=[];autosize=1;strokeColor=none;fillColor=none;" vertex="1" parent="1">
          <mxGeometry x="800" y="1208" width="40" height="30" as="geometry" />
        </mxCell>
        <mxCell id="X5VpgKdFM8C6l-6GHkS9-204" value="1,N" style="text;html=1;align=center;verticalAlign=middle;resizable=0;points=[];autosize=1;strokeColor=none;fillColor=none;" vertex="1" parent="1">
          <mxGeometry x="1040" y="1198" width="40" height="30" as="geometry" />
        </mxCell>
        <mxCell id="X5VpgKdFM8C6l-6GHkS9-205" value="0,N" style="text;html=1;align=center;verticalAlign=middle;resizable=0;points=[];autosize=1;strokeColor=none;fillColor=none;" vertex="1" parent="1">
          <mxGeometry x="740" y="1390" width="40" height="30" as="geometry" />
        </mxCell>
        <mxCell id="X5VpgKdFM8C6l-6GHkS9-206" value="0,N" style="text;html=1;align=center;verticalAlign=middle;resizable=0;points=[];autosize=1;strokeColor=none;fillColor=none;" vertex="1" parent="1">
          <mxGeometry x="740" y="1248" width="40" height="30" as="geometry" />
        </mxCell>
      </root>
    </mxGraphModel>
  </diagram>
</mxfile>
